<svg aria-roledescription="flowchart-v2" role="graphics-document document" viewBox="-8 -8 1515.8359375 870" style="max-width: 1515.84px; background-color: transparent;" xmlns:xlink="http://www.w3.org/1999/xlink" xmlns="http://www.w3.org/2000/svg" width="100%" id="my-svg"><style>#my-svg{font-family:"trebuchet ms",verdana,arial,sans-serif;font-size:16px;fill:#ccc;}#my-svg .error-icon{fill:#a44141;}#my-svg .error-text{fill:#ddd;stroke:#ddd;}#my-svg .edge-thickness-normal{stroke-width:2px;}#my-svg .edge-thickness-thick{stroke-width:3.5px;}#my-svg .edge-pattern-solid{stroke-dasharray:0;}#my-svg .edge-pattern-dashed{stroke-dasharray:3;}#my-svg .edge-pattern-dotted{stroke-dasharray:2;}#my-svg .marker{fill:lightgrey;stroke:lightgrey;}#my-svg .marker.cross{stroke:lightgrey;}#my-svg svg{font-family:"trebuchet ms",verdana,arial,sans-serif;font-size:16px;}#my-svg .label{font-family:"trebuchet ms",verdana,arial,sans-serif;color:#ccc;}#my-svg .cluster-label text{fill:#F9FFFE;}#my-svg .cluster-label span,#my-svg p{color:#F9FFFE;}#my-svg .label text,#my-svg span,#my-svg p{fill:#ccc;color:#ccc;}#my-svg .node rect,#my-svg .node circle,#my-svg .node ellipse,#my-svg .node polygon,#my-svg .node path{fill:#1f2020;stroke:#81B1DB;stroke-width:1px;}#my-svg .flowchart-label text{text-anchor:middle;}#my-svg .node .katex path{fill:#000;stroke:#000;stroke-width:1px;}#my-svg .node .label{text-align:center;}#my-svg .node.clickable{cursor:pointer;}#my-svg .arrowheadPath{fill:lightgrey;}#my-svg .edgePath .path{stroke:lightgrey;stroke-width:2.0px;}#my-svg .flowchart-link{stroke:lightgrey;fill:none;}#my-svg .edgeLabel{background-color:hsl(0, 0%, 34.4117647059%);text-align:center;}#my-svg .edgeLabel rect{opacity:0.5;background-color:hsl(0, 0%, 34.4117647059%);fill:hsl(0, 0%, 34.4117647059%);}#my-svg .labelBkg{background-color:rgba(87.75, 87.75, 87.75, 0.5);}#my-svg .cluster rect{fill:hsl(180, 1.5873015873%, 28.3529411765%);stroke:rgba(255, 255, 255, 0.25);stroke-width:1px;}#my-svg .cluster text{fill:#F9FFFE;}#my-svg .cluster span,#my-svg p{color:#F9FFFE;}#my-svg div.mermaidTooltip{position:absolute;text-align:center;max-width:200px;padding:2px;font-family:"trebuchet ms",verdana,arial,sans-serif;font-size:12px;background:hsl(20, 1.5873015873%, 12.3529411765%);border:1px solid rgba(255, 255, 255, 0.25);border-radius:2px;pointer-events:none;z-index:100;}#my-svg .flowchartTitleText{text-anchor:middle;font-size:18px;fill:#ccc;}#my-svg :root{--mermaid-font-family:"trebuchet ms",verdana,arial,sans-serif;}</style><g><marker orient="auto" markerHeight="12" markerWidth="12" markerUnits="userSpaceOnUse" refY="5" refX="6" viewBox="0 0 10 10" class="marker flowchart" id="my-svg_flowchart-pointEnd"><path style="stroke-width: 1; stroke-dasharray: 1, 0;" class="arrowMarkerPath" d="M 0 0 L 10 5 L 0 10 z"/></marker><marker orient="auto" markerHeight="12" markerWidth="12" markerUnits="userSpaceOnUse" refY="5" refX="4.5" viewBox="0 0 10 10" class="marker flowchart" id="my-svg_flowchart-pointStart"><path style="stroke-width: 1; stroke-dasharray: 1, 0;" class="arrowMarkerPath" d="M 0 5 L 10 10 L 10 0 z"/></marker><marker orient="auto" markerHeight="11" markerWidth="11" markerUnits="userSpaceOnUse" refY="5" refX="11" viewBox="0 0 10 10" class="marker flowchart" id="my-svg_flowchart-circleEnd"><circle style="stroke-width: 1; stroke-dasharray: 1, 0;" class="arrowMarkerPath" r="5" cy="5" cx="5"/></marker><marker orient="auto" markerHeight="11" markerWidth="11" markerUnits="userSpaceOnUse" refY="5" refX="-1" viewBox="0 0 10 10" class="marker flowchart" id="my-svg_flowchart-circleStart"><circle style="stroke-width: 1; stroke-dasharray: 1, 0;" class="arrowMarkerPath" r="5" cy="5" cx="5"/></marker><marker orient="auto" markerHeight="11" markerWidth="11" markerUnits="userSpaceOnUse" refY="5.2" refX="12" viewBox="0 0 11 11" class="marker cross flowchart" id="my-svg_flowchart-crossEnd"><path style="stroke-width: 2; stroke-dasharray: 1, 0;" class="arrowMarkerPath" d="M 1,1 l 9,9 M 10,1 l -9,9"/></marker><marker orient="auto" markerHeight="11" markerWidth="11" markerUnits="userSpaceOnUse" refY="5.2" refX="-1" viewBox="0 0 11 11" class="marker cross flowchart" id="my-svg_flowchart-crossStart"><path style="stroke-width: 2; stroke-dasharray: 1, 0;" class="arrowMarkerPath" d="M 1,1 l 9,9 M 10,1 l -9,9"/></marker><g class="root"><g class="clusters"><g id="External" class="cluster default flowchart-label"><rect height="147" width="540.796875" y="707" x="938.28125" ry="0" rx="0" style=""/><g transform="translate(1178.8046875, 707)" class="cluster-label"><foreignObject height="19" width="59.75"><div style="display: inline-block; white-space: nowrap;" xmlns="http://www.w3.org/1999/xhtml"><span class="nodeLabel">External</span></div></foreignObject></g></g><g id="subGraph4" class="cluster default flowchart-label"><rect height="166" width="597.546875" y="491" x="902.2890625" ry="0" rx="0" style=""/><g transform="translate(1130, 491)" class="cluster-label"><foreignObject height="19" width="142.125"><div style="display: inline-block; white-space: nowrap;" xmlns="http://www.w3.org/1999/xhtml"><span class="nodeLabel">Driven Side (ports/)</span></div></foreignObject></g></g><g id="subGraph3" class="cluster default flowchart-label"><rect height="598" width="882.2890625" y="256" x="0" ry="0" rx="0" style=""/><g transform="translate(381.62890625, 256)" class="cluster-label"><foreignObject height="19" width="119.03125"><div style="display: inline-block; white-space: nowrap;" xmlns="http://www.w3.org/1999/xhtml"><span class="nodeLabel">Application Core</span></div></foreignObject></g></g><g id="subGraph0" class="cluster default flowchart-label"><rect height="206" width="593.8359375" y="0" x="169.5078125" ry="0" rx="0" style=""/><g transform="translate(354.83203125, 0)" class="cluster-label"><foreignObject height="19" width="223.1875"><div style="display: inline-block; white-space: nowrap;" xmlns="http://www.w3.org/1999/xhtml"><span class="nodeLabel">Driving Side (Primary Adapters)</span></div></foreignObject></g></g><g id="subGraph1" class="cluster default flowchart-label"><rect height="160" width="842.2890625" y="281" x="20" ry="0" rx="0" style=""/><g transform="translate(332.20703125, 281)" class="cluster-label"><foreignObject height="19" width="217.875"><div style="display: inline-block; white-space: nowrap;" xmlns="http://www.w3.org/1999/xhtml"><span class="nodeLabel">Tauri Commands (commands/)</span></div></foreignObject></g></g><g id="subGraph2" class="cluster default flowchart-label"><rect height="313" width="369.828125" y="516" x="20" ry="0" rx="0" style=""/><g transform="translate(118.4765625, 516)" class="cluster-label"><foreignObject height="19" width="172.875"><div style="display: inline-block; white-space: nowrap;" xmlns="http://www.w3.org/1999/xhtml"><span class="nodeLabel">Domain Logic (domain/)</span></div></foreignObject></g></g></g><g class="edgePaths"><path marker-end="url(#my-svg_flowchart-pointEnd)" style="fill:none;" class="edge-thickness-normal edge-pattern-solid flowchart-link LS-UI LE-IPC" id="L-UI-IPC-0" d="M474.039,78L474.039,82.167C474.039,86.333,474.039,94.667,474.039,102.117C474.039,109.567,474.039,116.133,474.039,119.417L474.039,122.7"/><path marker-end="url(#my-svg_flowchart-pointEnd)" style="fill:none;" class="edge-thickness-normal edge-pattern-solid flowchart-link LS-IPC LE-C_TERM" id="L-IPC-C_TERM-0" d="M463.31,181L461.623,185.167C459.936,189.333,456.562,197.667,454.875,206C453.188,214.333,453.188,222.667,453.188,231C453.188,239.333,453.188,247.667,453.188,256C453.188,264.333,453.188,272.667,453.188,280.117C453.188,287.567,453.188,294.133,453.188,297.417L453.188,300.7"/><path marker-end="url(#my-svg_flowchart-pointEnd)" style="fill:none;" class="edge-thickness-normal edge-pattern-solid flowchart-link LS-IPC LE-C_AI" id="L-IPC-C_AI-0" d="M408.555,167.249L375.38,173.707C342.206,180.166,275.857,193.083,242.682,203.708C209.508,214.333,209.508,222.667,209.508,231C209.508,239.333,209.508,247.667,209.508,256C209.508,264.333,209.508,272.667,209.508,280.117C209.508,287.567,209.508,294.133,209.508,297.417L209.508,300.7"/><path marker-end="url(#my-svg_flowchart-pointEnd)" style="fill:none;" class="edge-thickness-normal edge-pattern-solid flowchart-link LS-IPC LE-C_CFG" id="L-IPC-C_CFG-0" d="M539.523,168.641L568.358,174.867C597.193,181.094,654.862,193.547,683.697,203.94C712.531,214.333,712.531,222.667,712.531,231C712.531,239.333,712.531,247.667,712.531,256C712.531,264.333,712.531,272.667,712.531,281.7C712.531,290.733,712.531,300.467,712.531,305.333L712.531,310.2"/><path marker-end="url(#my-svg_flowchart-pointEnd)" style="fill:none;" class="edge-thickness-normal edge-pattern-solid flowchart-link LS-C_AI LE-CTX" id="L-C_AI-CTX-0" d="M230.691,416L232.296,420.167C233.901,424.333,237.111,432.667,238.715,441C240.32,449.333,240.32,457.667,240.32,466C240.32,474.333,240.32,482.667,240.32,491C240.32,499.333,240.32,507.667,240.32,515.117C240.32,522.567,240.32,529.133,240.32,532.417L240.32,535.7"/><path marker-end="url(#my-svg_flowchart-pointEnd)" style="fill:none;" class="edge-thickness-normal edge-pattern-solid flowchart-link LS-C_AI LE-RED" id="L-C_AI-RED-0" d="M127.905,416L121.723,420.167C115.541,424.333,103.177,432.667,96.995,441C90.813,449.333,90.813,457.667,90.813,466C90.813,474.333,90.813,482.667,90.813,491C90.813,499.333,90.813,507.667,90.813,523.583C90.813,539.5,90.813,563,90.813,586.5C90.813,610,90.813,633.5,90.813,649.417C90.813,665.333,90.813,673.667,90.813,682C90.813,690.333,90.813,698.667,93.184,706.273C95.556,713.879,100.3,720.758,102.672,724.197L105.044,727.637"/><path marker-end="url(#my-svg_flowchart-pointEnd)" style="fill:none;" class="edge-thickness-normal edge-pattern-solid flowchart-link LS-CTX LE-RED" id="L-CTX-RED-0" d="M240.32,632L240.32,636.167C240.32,640.333,240.32,648.667,240.32,657C240.32,665.333,240.32,673.667,240.32,682C240.32,690.333,240.32,698.667,233.75,706.564C227.179,714.461,214.037,721.922,207.467,725.653L200.896,729.383"/><path marker-end="url(#my-svg_flowchart-pointEnd)" style="fill:none;" class="edge-thickness-normal edge-pattern-solid flowchart-link LS-C_TERM LE-PTY" id="L-C_TERM-PTY-0" d="M453.188,416L453.188,420.167C453.188,424.333,453.188,432.667,453.188,441C453.188,449.333,453.188,457.667,453.188,466C453.188,474.333,453.188,482.667,453.188,491C453.188,499.333,453.188,507.667,532.994,521.642C612.801,535.618,772.415,555.236,852.222,565.045L932.029,574.854"/><path marker-end="url(#my-svg_flowchart-pointEnd)" style="fill:none;" class="edge-thickness-normal edge-pattern-solid flowchart-link LS-C_AI LE-API" id="L-C_AI-API-0" d="M298.641,380.099L346.01,390.249C393.38,400.399,488.12,420.7,535.49,435.016C582.859,449.333,582.859,457.667,582.859,466C582.859,474.333,582.859,482.667,582.859,491C582.859,499.333,582.859,507.667,679.217,522.436C775.575,537.205,968.29,558.411,1064.648,569.014L1161.005,579.616"/><path marker-end="url(#my-svg_flowchart-pointEnd)" style="fill:none;" class="edge-thickness-normal edge-pattern-solid flowchart-link LS-C_CFG LE-DB" id="L-C_CFG-DB-0" d="M712.531,406.5L712.531,412.25C712.531,418,712.531,429.5,712.531,439.417C712.531,449.333,712.531,457.667,712.531,466C712.531,474.333,712.531,482.667,712.531,491C712.531,499.333,712.531,507.667,814.706,522.344C916.881,537.022,1121.23,558.044,1223.405,568.555L1325.579,579.066"/><path marker-end="url(#my-svg_flowchart-pointEnd)" style="fill:none;" class="edge-thickness-normal edge-pattern-solid flowchart-link LS-PTY LE-SHELL" id="L-PTY-SHELL-0" d="M1026.781,622.5L1026.781,628.25C1026.781,634,1026.781,645.5,1026.781,655.417C1026.781,665.333,1026.781,673.667,1026.781,682C1026.781,690.333,1026.781,698.667,1026.781,709.283C1026.781,719.9,1026.781,732.8,1026.781,739.25L1026.781,745.7"/><path marker-end="url(#my-svg_flowchart-pointEnd)" style="fill:none;" class="edge-thickness-normal edge-pattern-solid flowchart-link LS-API LE-CLAUDE" id="L-API-CLAUDE-0" d="M1223.563,622.5L1223.563,628.25C1223.563,634,1223.563,645.5,1223.563,655.417C1223.563,665.333,1223.563,673.667,1223.563,682C1223.563,690.333,1223.563,698.667,1223.563,709.283C1223.563,719.9,1223.563,732.8,1223.563,739.25L1223.563,745.7"/><path marker-end="url(#my-svg_flowchart-pointEnd)" style="fill:none;" class="edge-thickness-normal edge-pattern-solid flowchart-link LS-DB LE-SQLITE" id="L-DB-SQLITE-0" d="M1397.844,622.5L1397.844,628.25C1397.844,634,1397.844,645.5,1397.844,655.417C1397.844,665.333,1397.844,673.667,1397.844,682C1397.844,690.333,1397.844,698.667,1397.844,709.283C1397.844,719.9,1397.844,732.8,1397.844,739.25L1397.844,745.7"/></g><g class="edgeLabels"><g class="edgeLabel"><g transform="translate(0, 0)" class="label"><foreignObject height="0" width="0"><div style="display: inline-block; white-space: nowrap;" xmlns="http://www.w3.org/1999/xhtml"><span class="edgeLabel"></span></div></foreignObject></g></g><g class="edgeLabel"><g transform="translate(0, 0)" class="label"><foreignObject height="0" width="0"><div style="display: inline-block; white-space: nowrap;" xmlns="http://www.w3.org/1999/xhtml"><span class="edgeLabel"></span></div></foreignObject></g></g><g class="edgeLabel"><g transform="translate(0, 0)" class="label"><foreignObject height="0" width="0"><div style="display: inline-block; white-space: nowrap;" xmlns="http://www.w3.org/1999/xhtml"><span class="edgeLabel"></span></div></foreignObject></g></g><g class="edgeLabel"><g transform="translate(0, 0)" class="label"><foreignObject height="0" width="0"><div style="display: inline-block; white-space: nowrap;" xmlns="http://www.w3.org/1999/xhtml"><span class="edgeLabel"></span></div></foreignObject></g></g><g class="edgeLabel"><g transform="translate(0, 0)" class="label"><foreignObject height="0" width="0"><div style="display: inline-block; white-space: nowrap;" xmlns="http://www.w3.org/1999/xhtml"><span class="edgeLabel"></span></div></foreignObject></g></g><g class="edgeLabel"><g transform="translate(0, 0)" class="label"><foreignObject height="0" width="0"><div style="display: inline-block; white-space: nowrap;" xmlns="http://www.w3.org/1999/xhtml"><span class="edgeLabel"></span></div></foreignObject></g></g><g class="edgeLabel"><g transform="translate(0, 0)" class="label"><foreignObject height="0" width="0"><div style="display: inline-block; white-space: nowrap;" xmlns="http://www.w3.org/1999/xhtml"><span class="edgeLabel"></span></div></foreignObject></g></g><g class="edgeLabel"><g transform="translate(0, 0)" class="label"><foreignObject height="0" width="0"><div style="display: inline-block; white-space: nowrap;" xmlns="http://www.w3.org/1999/xhtml"><span class="edgeLabel"></span></div></foreignObject></g></g><g class="edgeLabel"><g transform="translate(0, 0)" class="label"><foreignObject height="0" width="0"><div style="display: inline-block; white-space: nowrap;" xmlns="http://www.w3.org/1999/xhtml"><span class="edgeLabel"></span></div></foreignObject></g></g><g class="edgeLabel"><g transform="translate(0, 0)" class="label"><foreignObject height="0" width="0"><div style="display: inline-block; white-space: nowrap;" xmlns="http://www.w3.org/1999/xhtml"><span class="edgeLabel"></span></div></foreignObject></g></g><g class="edgeLabel"><g transform="translate(0, 0)" class="label"><foreignObject height="0" width="0"><div style="display: inline-block; white-space: nowrap;" xmlns="http://www.w3.org/1999/xhtml"><span class="edgeLabel"></span></div></foreignObject></g></g><g class="edgeLabel"><g transform="translate(0, 0)" class="label"><foreignObject height="0" width="0"><div style="display: inline-block; white-space: nowrap;" xmlns="http://www.w3.org/1999/xhtml"><span class="edgeLabel"></span></div></foreignObject></g></g><g class="edgeLabel"><g transform="translate(0, 0)" class="label"><foreignObject height="0" width="0"><div style="display: inline-block; white-space: nowrap;" xmlns="http://www.w3.org/1999/xhtml"><span class="edgeLabel"></span></div></foreignObject></g></g></g><g class="nodes"><g transform="translate(1026.78125, 768)" data-id="SHELL" data-node="true" id="flowchart-SHELL-10" class="node default default flowchart-label"><rect height="34" width="107" y="-17" x="-53.5" ry="0" rx="0" style="" class="basic label-container"/><g transform="translate(-46, -9.5)" style="" class="label"><rect/><foreignObject height="19" width="92"><div style="display: inline-block; white-space: nowrap;" xmlns="http://www.w3.org/1999/xhtml"><span class="nodeLabel">Shell Process</span></div></foreignObject></g></g><g transform="translate(1223.5625, 768)" data-id="CLAUDE" data-node="true" id="flowchart-CLAUDE-11" class="node default default flowchart-label"><rect height="34" width="90.828125" y="-17" x="-45.4140625" ry="0" rx="0" style="" class="basic label-container"/><g transform="translate(-37.9140625, -9.5)" style="" class="label"><rect/><foreignObject height="19" width="75.828125"><div style="display: inline-block; white-space: nowrap;" xmlns="http://www.w3.org/1999/xhtml"><span class="nodeLabel">Claude API</span></div></foreignObject></g></g><g transform="translate(1397.84375, 768)" data-id="SQLITE" data-node="true" id="flowchart-SQLITE-12" class="node default default flowchart-label"><rect height="34" width="92.46875" y="-17" x="-46.234375" ry="0" rx="0" style="" class="basic label-container"/><g transform="translate(-38.734375, -9.5)" style="" class="label"><rect/><foreignObject height="19" width="77.46875"><div style="display: inline-block; white-space: nowrap;" xmlns="http://www.w3.org/1999/xhtml"><span class="nodeLabel">SQLite File</span></div></foreignObject></g></g><g transform="translate(1026.78125, 586.5)" data-id="PTY" data-node="true" id="flowchart-PTY-7" class="node default default flowchart-label"><rect height="72" width="178.984375" y="-36" x="-89.4921875" ry="0" rx="0" style="fill:#f5c2e7;" class="basic label-container"/><g transform="translate(-81.9921875, -28.5)" style="color:#1e1e2e;" class="label"><rect/><foreignObject height="57" width="163.984375"><div xmlns="http://www.w3.org/1999/xhtml" style="color: rgb(30, 30, 46); display: inline-block; white-space: nowrap;"><span style="color:#1e1e2e;" class="nodeLabel">pty.rs<br />PtyHandle + PtyReader<br />portable-pty</span></div></foreignObject></g></g><g transform="translate(1223.5625, 586.5)" data-id="API" data-node="true" id="flowchart-API-8" class="node default default flowchart-label"><rect height="72" width="114.578125" y="-36" x="-57.2890625" ry="0" rx="0" style="fill:#f5c2e7;" class="basic label-container"/><g transform="translate(-49.7890625, -28.5)" style="color:#1e1e2e;" class="label"><rect/><foreignObject height="57" width="99.578125"><div xmlns="http://www.w3.org/1999/xhtml" style="color: rgb(30, 30, 46); display: inline-block; white-space: nowrap;"><span style="color:#1e1e2e;" class="nodeLabel">claude_api.rs<br />SSE streaming<br />reqwest</span></div></foreignObject></g></g><g transform="translate(1397.84375, 586.5)" data-id="DB" data-node="true" id="flowchart-DB-9" class="node default default flowchart-label"><rect height="72" width="133.984375" y="-36" x="-66.9921875" ry="0" rx="0" style="fill:#f5c2e7;" class="basic label-container"/><g transform="translate(-59.4921875, -28.5)" style="color:#1e1e2e;" class="label"><rect/><foreignObject height="57" width="118.984375"><div xmlns="http://www.w3.org/1999/xhtml" style="color: rgb(30, 30, 46); display: inline-block; white-space: nowrap;"><span style="color:#1e1e2e;" class="nodeLabel">storage.rs<br />SQLite + rusqlite<br />6 tables</span></div></foreignObject></g></g><g transform="translate(240.3203125, 586.5)" data-id="CTX" data-node="true" id="flowchart-CTX-5" class="node default default flowchart-label"><rect height="91" width="229.015625" y="-45.5" x="-114.5078125" ry="0" rx="0" style="fill:#f9e2af;" class="basic label-container"/><g transform="translate(-107.0078125, -38)" style="color:#1e1e2e;" class="label"><rect/><foreignObject height="76" width="214.015625"><div xmlns="http://www.w3.org/1999/xhtml" style="color: rgb(30, 30, 46); display: inline-block; white-space: nowrap;"><span style="color:#1e1e2e;" class="nodeLabel">context.rs<br />ShellContext<br />build_system_prompt<br />build_error_diagnosis_prompt</span></div></foreignObject></g></g><g transform="translate(132.87890625, 768)" data-id="RED" data-node="true" id="flowchart-RED-6" class="node default default flowchart-label"><rect height="72" width="133.25" y="-36" x="-66.625" ry="0" rx="0" style="fill:#f9e2af;" class="basic label-container"/><g transform="translate(-59.125, -28.5)" style="color:#1e1e2e;" class="label"><rect/><foreignObject height="57" width="118.25"><div xmlns="http://www.w3.org/1999/xhtml" style="color: rgb(30, 30, 46); display: inline-block; white-space: nowrap;"><span style="color:#1e1e2e;" class="nodeLabel">redaction.rs<br />RedactionEngine<br />6 regex patterns</span></div></foreignObject></g></g><g transform="translate(453.1875, 361)" data-id="C_TERM" data-node="true" id="flowchart-C_TERM-2" class="node default default flowchart-label"><rect height="110" width="189.171875" y="-55" x="-94.5859375" ry="0" rx="0" style="fill:#a6e3a1;" class="basic label-container"/><g transform="translate(-87.0859375, -47.5)" style="color:#1e1e2e;" class="label"><rect/><foreignObject height="95" width="174.171875"><div xmlns="http://www.w3.org/1999/xhtml" style="color: rgb(30, 30, 46); display: inline-block; white-space: nowrap;"><span style="color:#1e1e2e;" class="nodeLabel">terminal.rs<br />create_terminal_session<br />write_to_pty<br />resize_pty<br />close_terminal_session</span></div></foreignObject></g></g><g transform="translate(209.5078125, 361)" data-id="C_AI" data-node="true" id="flowchart-C_AI-3" class="node default default flowchart-label"><rect height="110" width="178.265625" y="-55" x="-89.1328125" ry="0" rx="0" style="fill:#a6e3a1;" class="basic label-container"/><g transform="translate(-81.6328125, -47.5)" style="color:#1e1e2e;" class="label"><rect/><foreignObject height="95" width="163.265625"><div xmlns="http://www.w3.org/1999/xhtml" style="color: rgb(30, 30, 46); display: inline-block; white-space: nowrap;"><span style="color:#1e1e2e;" class="nodeLabel">ai.rs<br />ai_translate_command<br />ai_explain_error<br />ai_chat<br />ai_cancel</span></div></foreignObject></g></g><g transform="translate(712.53125, 361)" data-id="C_CFG" data-node="true" id="flowchart-C_CFG-4" class="node default default flowchart-label"><rect height="91" width="229.515625" y="-45.5" x="-114.7578125" ry="0" rx="0" style="fill:#a6e3a1;" class="basic label-container"/><g transform="translate(-107.2578125, -38)" style="color:#1e1e2e;" class="label"><rect/><foreignObject height="76" width="214.515625"><div xmlns="http://www.w3.org/1999/xhtml" style="color: rgb(30, 30, 46); display: inline-block; white-space: nowrap;"><span style="color:#1e1e2e;" class="nodeLabel">config.rs<br />get_config / set_config<br />store_api_key<br />has_api_key / delete_api_key</span></div></foreignObject></g></g><g transform="translate(474.0390625, 51.5)" data-id="UI" data-node="true" id="flowchart-UI-0" class="node default default flowchart-label"><rect height="53" width="148.03125" y="-26.5" x="-74.015625" ry="0" rx="0" style="fill:#89b4fa;" class="basic label-container"/><g transform="translate(-66.515625, -19)" style="color:#1e1e2e;" class="label"><rect/><foreignObject height="38" width="133.03125"><div xmlns="http://www.w3.org/1999/xhtml" style="color: rgb(30, 30, 46); display: inline-block; white-space: nowrap;"><span style="color:#1e1e2e;" class="nodeLabel">React + xterm.js<br />(TerminalView.tsx)</span></div></foreignObject></g></g><g transform="translate(474.0390625, 154.5)" data-id="IPC" data-node="true" id="flowchart-IPC-1" class="node default default flowchart-label"><rect height="53" width="130.96875" y="-26.5" x="-65.484375" ry="0" rx="0" style="fill:#89b4fa;" class="basic label-container"/><g transform="translate(-57.984375, -19)" style="color:#1e1e2e;" class="label"><rect/><foreignObject height="38" width="115.96875"><div xmlns="http://www.w3.org/1999/xhtml" style="color: rgb(30, 30, 46); display: inline-block; white-space: nowrap;"><span style="color:#1e1e2e;" class="nodeLabel">Tauri IPC Bridge<br />(tauri-bridge.ts)</span></div></foreignObject></g></g></g></g></g></svg>