<svg aria-roledescription="flowchart-v2" role="graphics-document document" viewBox="-8 -8 1191.75 743" style="max-width: 1191.75px; background-color: transparent;" xmlns:xlink="http://www.w3.org/1999/xlink" xmlns="http://www.w3.org/2000/svg" width="100%" id="my-svg"><style>#my-svg{font-family:"trebuchet ms",verdana,arial,sans-serif;font-size:16px;fill:#ccc;}#my-svg .error-icon{fill:#a44141;}#my-svg .error-text{fill:#ddd;stroke:#ddd;}#my-svg .edge-thickness-normal{stroke-width:2px;}#my-svg .edge-thickness-thick{stroke-width:3.5px;}#my-svg .edge-pattern-solid{stroke-dasharray:0;}#my-svg .edge-pattern-dashed{stroke-dasharray:3;}#my-svg .edge-pattern-dotted{stroke-dasharray:2;}#my-svg .marker{fill:lightgrey;stroke:lightgrey;}#my-svg .marker.cross{stroke:lightgrey;}#my-svg svg{font-family:"trebuchet ms",verdana,arial,sans-serif;font-size:16px;}#my-svg .label{font-family:"trebuchet ms",verdana,arial,sans-serif;color:#ccc;}#my-svg .cluster-label text{fill:#F9FFFE;}#my-svg .cluster-label span,#my-svg p{color:#F9FFFE;}#my-svg .label text,#my-svg span,#my-svg p{fill:#ccc;color:#ccc;}#my-svg .node rect,#my-svg .node circle,#my-svg .node ellipse,#my-svg .node polygon,#my-svg .node path{fill:#1f2020;stroke:#81B1DB;stroke-width:1px;}#my-svg .flowchart-label text{text-anchor:middle;}#my-svg .node .katex path{fill:#000;stroke:#000;stroke-width:1px;}#my-svg .node .label{text-align:center;}#my-svg .node.clickable{cursor:pointer;}#my-svg .arrowheadPath{fill:lightgrey;}#my-svg .edgePath .path{stroke:lightgrey;stroke-width:2.0px;}#my-svg .flowchart-link{stroke:lightgrey;fill:none;}#my-svg .edgeLabel{background-color:hsl(0, 0%, 34.4117647059%);text-align:center;}#my-svg .edgeLabel rect{opacity:0.5;background-color:hsl(0, 0%, 34.4117647059%);fill:hsl(0, 0%, 34.4117647059%);}#my-svg .labelBkg{background-color:rgba(87.75, 87.75, 87.75, 0.5);}#my-svg .cluster rect{fill:hsl(180, 1.5873015873%, 28.3529411765%);stroke:rgba(255, 255, 255, 0.25);stroke-width:1px;}#my-svg .cluster text{fill:#F9FFFE;}#my-svg .cluster span,#my-svg p{color:#F9FFFE;}#my-svg div.mermaidTooltip{position:absolute;text-align:center;max-width:200px;padding:2px;font-family:"trebuchet ms",verdana,arial,sans-serif;font-size:12px;background:hsl(20, 1.5873015873%, 12.3529411765%);border:1px solid rgba(255, 255, 255, 0.25);border-radius:2px;pointer-events:none;z-index:100;}#my-svg .flowchartTitleText{text-anchor:middle;font-size:18px;fill:#ccc;}#my-svg :root{--mermaid-font-family:"trebuchet ms",verdana,arial,sans-serif;}</style><g><marker orient="auto" markerHeight="12" markerWidth="12" markerUnits="userSpaceOnUse" refY="5" refX="6" viewBox="0 0 10 10" class="marker flowchart" id="my-svg_flowchart-pointEnd"><path style="stroke-width: 1; stroke-dasharray: 1, 0;" class="arrowMarkerPath" d="M 0 0 L 10 5 L 0 10 z"/></marker><marker orient="auto" markerHeight="12" markerWidth="12" markerUnits="userSpaceOnUse" refY="5" refX="4.5" viewBox="0 0 10 10" class="marker flowchart" id="my-svg_flowchart-pointStart"><path style="stroke-width: 1; stroke-dasharray: 1, 0;" class="arrowMarkerPath" d="M 0 5 L 10 10 L 10 0 z"/></marker><marker orient="auto" markerHeight="11" markerWidth="11" markerUnits="userSpaceOnUse" refY="5" refX="11" viewBox="0 0 10 10" class="marker flowchart" id="my-svg_flowchart-circleEnd"><circle style="stroke-width: 1; stroke-dasharray: 1, 0;" class="arrowMarkerPath" r="5" cy="5" cx="5"/></marker><marker orient="auto" markerHeight="11" markerWidth="11" markerUnits="userSpaceOnUse" refY="5" refX="-1" viewBox="0 0 10 10" class="marker flowchart" id="my-svg_flowchart-circleStart"><circle style="stroke-width: 1; stroke-dasharray: 1, 0;" class="arrowMarkerPath" r="5" cy="5" cx="5"/></marker><marker orient="auto" markerHeight="11" markerWidth="11" markerUnits="userSpaceOnUse" refY="5.2" refX="12" viewBox="0 0 11 11" class="marker cross flowchart" id="my-svg_flowchart-crossEnd"><path style="stroke-width: 2; stroke-dasharray: 1, 0;" class="arrowMarkerPath" d="M 1,1 l 9,9 M 10,1 l -9,9"/></marker><marker orient="auto" markerHeight="11" markerWidth="11" markerUnits="userSpaceOnUse" refY="5.2" refX="-1" viewBox="0 0 11 11" class="marker cross flowchart" id="my-svg_flowchart-crossStart"><path style="stroke-width: 2; stroke-dasharray: 1, 0;" class="arrowMarkerPath" d="M 1,1 l 9,9 M 10,1 l -9,9"/></marker><g class="root"><g class="clusters"><g id="subGraph3" class="cluster default flowchart-label"><rect height="179" width="774.171875" y="363" x="0" ry="0" rx="0" style=""/><g transform="translate(306.6015625, 363)" class="cluster-label"><foreignObject height="19" width="160.96875"><div style="display: inline-block; white-space: nowrap;" xmlns="http://www.w3.org/1999/xhtml"><span class="nodeLabel">ports/ (Infrastructure)</span></div></foreignObject></g></g><g id="subGraph2" class="cluster default flowchart-label"><rect height="364" width="381.578125" y="363" x="794.171875" ry="0" rx="0" style=""/><g transform="translate(895.59375, 363)" class="cluster-label"><foreignObject height="19" width="178.734375"><div style="display: inline-block; white-space: nowrap;" xmlns="http://www.w3.org/1999/xhtml"><span class="nodeLabel">domain/ (Business Logic)</span></div></foreignObject></g></g><g id="subGraph1" class="cluster default flowchart-label"><rect height="122" width="1047.71484375" y="191" x="36.046875" ry="0" rx="0" style=""/><g transform="translate(448.552734375, 191)" class="cluster-label"><foreignObject height="19" width="222.703125"><div style="display: inline-block; white-space: nowrap;" xmlns="http://www.w3.org/1999/xhtml"><span class="nodeLabel">commands/ (Primary Adapters)</span></div></foreignObject></g></g><g id="subGraph0" class="cluster default flowchart-label"><rect height="141" width="786.140625" y="0" x="98.84375" ry="0" rx="0" style=""/><g transform="translate(437.734375, 0)" class="cluster-label"><foreignObject height="19" width="108.359375"><div style="display: inline-block; white-space: nowrap;" xmlns="http://www.w3.org/1999/xhtml"><span class="nodeLabel">main.rs / lib.rs</span></div></foreignObject></g></g></g><g class="edgePaths"><path marker-end="url(#my-svg_flowchart-pointEnd)" style="fill:none;" class="edge-thickness-normal edge-pattern-solid flowchart-link LS-MAIN LE-CMD_TERM" id="L-MAIN-CMD_TERM-0" d="M557.672,82.712L488.533,92.427C419.393,102.141,281.115,121.571,211.975,135.452C142.836,149.333,142.836,157.667,142.836,166C142.836,174.333,142.836,182.667,142.836,190.117C142.836,197.567,142.836,204.133,142.836,207.417L142.836,210.7"/><path marker-end="url(#my-svg_flowchart-pointEnd)" style="fill:none;" class="edge-thickness-normal edge-pattern-solid flowchart-link LS-MAIN LE-CMD_AI" id="L-MAIN-CMD_AI-0" d="M731.5,98.302L753.747,105.418C775.995,112.534,820.49,126.767,842.737,138.05C864.984,149.333,864.984,157.667,864.984,166C864.984,174.333,864.984,182.667,864.984,190.117C864.984,197.567,864.984,204.133,864.984,207.417L864.984,210.7"/><path marker-end="url(#my-svg_flowchart-pointEnd)" style="fill:none;" class="edge-thickness-normal edge-pattern-solid flowchart-link LS-MAIN LE-CMD_CFG" id="L-MAIN-CMD_CFG-0" d="M644.586,116L644.586,120.167C644.586,124.333,644.586,132.667,644.586,141C644.586,149.333,644.586,157.667,644.586,166C644.586,174.333,644.586,182.667,644.586,190.117C644.586,197.567,644.586,204.133,644.586,207.417L644.586,210.7"/><path marker-end="url(#my-svg_flowchart-pointEnd)" style="fill:none;" class="edge-thickness-normal edge-pattern-solid flowchart-link LS-CMD_TERM LE-PORT_PTY" id="L-CMD_TERM-PORT_PTY-0" d="M142.836,288L142.836,292.167C142.836,296.333,142.836,304.667,142.836,313C142.836,321.333,142.836,329.667,142.836,338C142.836,346.333,142.836,354.667,142.836,365.283C142.836,375.9,142.836,388.8,142.836,395.25L142.836,401.7"/><path marker-end="url(#my-svg_flowchart-pointEnd)" style="fill:none;" class="edge-thickness-normal edge-pattern-solid flowchart-link LS-CMD_AI LE-DOM_CTX" id="L-CMD_AI-DOM_CTX-0" d="M936.773,280.183L950.706,285.652C964.638,291.122,992.503,302.061,1006.435,311.697C1020.367,321.333,1020.367,329.667,1020.367,338C1020.367,346.333,1020.367,354.667,1020.367,363.7C1020.367,372.733,1020.367,382.467,1020.367,387.333L1020.367,392.2"/><path marker-end="url(#my-svg_flowchart-pointEnd)" style="fill:none;" class="edge-thickness-normal edge-pattern-solid flowchart-link LS-CMD_AI LE-DOM_RED" id="L-CMD_AI-DOM_RED-0" d="M864.984,288L864.984,292.167C864.984,296.333,864.984,304.667,864.984,313C864.984,321.333,864.984,329.667,864.984,338C864.984,346.333,864.984,354.667,864.984,373.75C864.984,392.833,864.984,422.667,864.984,452.5C864.984,482.333,864.984,512.167,864.984,531.25C864.984,550.333,864.984,558.667,873.899,568.558C882.813,578.45,900.642,589.899,909.556,595.624L918.47,601.349"/><path marker-end="url(#my-svg_flowchart-pointEnd)" style="fill:none;" class="edge-thickness-normal edge-pattern-solid flowchart-link LS-CMD_AI LE-PORT_API" id="L-CMD_AI-PORT_API-0" d="M793.195,261.506L728.384,270.089C663.573,278.671,533.951,295.835,469.139,308.584C404.328,321.333,404.328,329.667,404.328,338C404.328,346.333,404.328,354.667,404.328,363.7C404.328,372.733,404.328,382.467,404.328,387.333L404.328,392.2"/><path marker-end="url(#my-svg_flowchart-pointEnd)" style="fill:none;" class="edge-thickness-normal edge-pattern-solid flowchart-link LS-CMD_CFG LE-PORT_STORE" id="L-CMD_CFG-PORT_STORE-0" d="M646.942,288L647.215,292.167C647.487,296.333,648.033,304.667,648.305,313C648.578,321.333,648.578,329.667,648.578,338C648.578,346.333,648.578,354.667,648.578,362.117C648.578,369.567,648.578,376.133,648.578,379.417L648.578,382.7"/><path marker-end="url(#my-svg_flowchart-pointEnd)" style="fill:none;" class="edge-thickness-normal edge-pattern-solid flowchart-link LS-DOM_CTX LE-DOM_RED" id="L-DOM_CTX-DOM_RED-0" d="M1020.367,507.5L1020.367,513.25C1020.367,519,1020.367,530.5,1020.367,540.417C1020.367,550.333,1020.367,558.667,1019.08,566.176C1017.793,573.685,1015.218,580.369,1013.931,583.712L1012.643,587.054"/></g><g class="edgeLabels"><g class="edgeLabel"><g transform="translate(0, 0)" class="label"><foreignObject height="0" width="0"><div style="display: inline-block; white-space: nowrap;" xmlns="http://www.w3.org/1999/xhtml"><span class="edgeLabel"></span></div></foreignObject></g></g><g class="edgeLabel"><g transform="translate(0, 0)" class="label"><foreignObject height="0" width="0"><div style="display: inline-block; white-space: nowrap;" xmlns="http://www.w3.org/1999/xhtml"><span class="edgeLabel"></span></div></foreignObject></g></g><g class="edgeLabel"><g transform="translate(0, 0)" class="label"><foreignObject height="0" width="0"><div style="display: inline-block; white-space: nowrap;" xmlns="http://www.w3.org/1999/xhtml"><span class="edgeLabel"></span></div></foreignObject></g></g><g class="edgeLabel"><g transform="translate(0, 0)" class="label"><foreignObject height="0" width="0"><div style="display: inline-block; white-space: nowrap;" xmlns="http://www.w3.org/1999/xhtml"><span class="edgeLabel"></span></div></foreignObject></g></g><g class="edgeLabel"><g transform="translate(0, 0)" class="label"><foreignObject height="0" width="0"><div style="display: inline-block; white-space: nowrap;" xmlns="http://www.w3.org/1999/xhtml"><span class="edgeLabel"></span></div></foreignObject></g></g><g class="edgeLabel"><g transform="translate(0, 0)" class="label"><foreignObject height="0" width="0"><div style="display: inline-block; white-space: nowrap;" xmlns="http://www.w3.org/1999/xhtml"><span class="edgeLabel"></span></div></foreignObject></g></g><g class="edgeLabel"><g transform="translate(0, 0)" class="label"><foreignObject height="0" width="0"><div style="display: inline-block; white-space: nowrap;" xmlns="http://www.w3.org/1999/xhtml"><span class="edgeLabel"></span></div></foreignObject></g></g><g class="edgeLabel"><g transform="translate(0, 0)" class="label"><foreignObject height="0" width="0"><div style="display: inline-block; white-space: nowrap;" xmlns="http://www.w3.org/1999/xhtml"><span class="edgeLabel"></span></div></foreignObject></g></g><g class="edgeLabel"><g transform="translate(0, 0)" class="label"><foreignObject height="0" width="0"><div style="display: inline-block; white-space: nowrap;" xmlns="http://www.w3.org/1999/xhtml"><span class="edgeLabel"></span></div></foreignObject></g></g></g><g class="nodes"><g transform="translate(142.8359375, 452.5)" data-id="PORT_PTY" data-node="true" id="flowchart-PORT_PTY-6" class="node default default flowchart-label"><rect height="91" width="215.671875" y="-45.5" x="-107.8359375" ry="0" rx="0" style="fill:#f5c2e7;" class="basic label-container"/><g transform="translate(-100.3359375, -38)" style="color:#1e1e2e;" class="label"><rect/><foreignObject height="76" width="200.671875"><div xmlns="http://www.w3.org/1999/xhtml" style="color: rgb(30, 30, 46); display: inline-block; white-space: nowrap;"><span style="color:#1e1e2e;" class="nodeLabel">pty.rs<br />PtyHandle + PtyReader<br />spawn / write / resize / kill<br />95 lines</span></div></foreignObject></g></g><g transform="translate(404.328125, 452.5)" data-id="PORT_API" data-node="true" id="flowchart-PORT_API-7" class="node default default flowchart-label"><rect height="110" width="207.3125" y="-55" x="-103.65625" ry="0" rx="0" style="fill:#f5c2e7;" class="basic label-container"/><g transform="translate(-96.15625, -47.5)" style="color:#1e1e2e;" class="label"><rect/><foreignObject height="95" width="192.3125"><div xmlns="http://www.w3.org/1999/xhtml" style="color: rgb(30, 30, 46); display: inline-block; white-space: nowrap;"><span style="color:#1e1e2e;" class="nodeLabel">claude_api.rs<br />send_message_streaming()<br />SSE parsing<br />validate_api_key()<br />140 lines</span></div></foreignObject></g></g><g transform="translate(648.578125, 452.5)" data-id="PORT_STORE" data-node="true" id="flowchart-PORT_STORE-8" class="node default default flowchart-label"><rect height="129" width="181.1875" y="-64.5" x="-90.59375" ry="0" rx="0" style="fill:#f5c2e7;" class="basic label-container"/><g transform="translate(-83.09375, -57)" style="color:#1e1e2e;" class="label"><rect/><foreignObject height="114" width="166.1875"><div xmlns="http://www.w3.org/1999/xhtml" style="color: rgb(30, 30, 46); display: inline-block; white-space: nowrap;"><span style="color:#1e1e2e;" class="nodeLabel">storage.rs<br />Storage (SQLite)<br />6 tables, WAL mode<br />get/set config<br />save_command_history<br />154 lines</span></div></foreignObject></g></g><g transform="translate(1020.3671875, 452.5)" data-id="DOM_CTX" data-node="true" id="flowchart-DOM_CTX-4" class="node default default flowchart-label"><rect height="110" width="240.765625" y="-55" x="-120.3828125" ry="0" rx="0" style="fill:#f9e2af;" class="basic label-container"/><g transform="translate(-112.8828125, -47.5)" style="color:#1e1e2e;" class="label"><rect/><foreignObject height="95" width="225.765625"><div xmlns="http://www.w3.org/1999/xhtml" style="color: rgb(30, 30, 46); display: inline-block; white-space: nowrap;"><span style="color:#1e1e2e;" class="nodeLabel">context.rs<br />ShellContext struct<br />build_system_prompt()<br />build_error_diagnosis_prompt()<br />78 lines</span></div></foreignObject></g></g><g transform="translate(989.5546875, 647)" data-id="DOM_RED" data-node="true" id="flowchart-DOM_RED-5" class="node default default flowchart-label"><rect height="110" width="133.25" y="-55" x="-66.625" ry="0" rx="0" style="fill:#f9e2af;" class="basic label-container"/><g transform="translate(-59.125, -47.5)" style="color:#1e1e2e;" class="label"><rect/><foreignObject height="95" width="118.25"><div xmlns="http://www.w3.org/1999/xhtml" style="color: rgb(30, 30, 46); display: inline-block; white-space: nowrap;"><span style="color:#1e1e2e;" class="nodeLabel">redaction.rs<br />RedactionEngine<br />6 regex patterns<br />4 unit tests<br />77 lines</span></div></foreignObject></g></g><g transform="translate(142.8359375, 252)" data-id="CMD_TERM" data-node="true" id="flowchart-CMD_TERM-1" class="node default default flowchart-label"><rect height="72" width="143.578125" y="-36" x="-71.7890625" ry="0" rx="0" style="fill:#a6e3a1;" class="basic label-container"/><g transform="translate(-64.2890625, -28.5)" style="color:#1e1e2e;" class="label"><rect/><foreignObject height="57" width="128.578125"><div xmlns="http://www.w3.org/1999/xhtml" style="color: rgb(30, 30, 46); display: inline-block; white-space: nowrap;"><span style="color:#1e1e2e;" class="nodeLabel">terminal.rs<br />4 Tauri commands<br />140 lines</span></div></foreignObject></g></g><g transform="translate(864.984375, 252)" data-id="CMD_AI" data-node="true" id="flowchart-CMD_AI-2" class="node default default flowchart-label"><rect height="72" width="143.578125" y="-36" x="-71.7890625" ry="0" rx="0" style="fill:#a6e3a1;" class="basic label-container"/><g transform="translate(-64.2890625, -28.5)" style="color:#1e1e2e;" class="label"><rect/><foreignObject height="57" width="128.578125"><div xmlns="http://www.w3.org/1999/xhtml" style="color: rgb(30, 30, 46); display: inline-block; white-space: nowrap;"><span style="color:#1e1e2e;" class="nodeLabel">ai.rs<br />4 Tauri commands<br />301 lines</span></div></foreignObject></g></g><g transform="translate(644.5859375, 252)" data-id="CMD_CFG" data-node="true" id="flowchart-CMD_CFG-3" class="node default default flowchart-label"><rect height="72" width="143.578125" y="-36" x="-71.7890625" ry="0" rx="0" style="fill:#a6e3a1;" class="basic label-container"/><g transform="translate(-64.2890625, -28.5)" style="color:#1e1e2e;" class="label"><rect/><foreignObject height="57" width="128.578125"><div xmlns="http://www.w3.org/1999/xhtml" style="color: rgb(30, 30, 46); display: inline-block; white-space: nowrap;"><span style="color:#1e1e2e;" class="nodeLabel">config.rs<br />5 Tauri commands<br />67 lines</span></div></foreignObject></g></g><g transform="translate(644.5859375, 70.5)" data-id="MAIN" data-node="true" id="flowchart-MAIN-0" class="node default default flowchart-label"><rect height="91" width="173.828125" y="-45.5" x="-86.9140625" ry="0" rx="0" style="fill:#89b4fa;" class="basic label-container"/><g transform="translate(-79.4140625, -38)" style="color:#1e1e2e;" class="label"><rect/><foreignObject height="76" width="158.828125"><div xmlns="http://www.w3.org/1999/xhtml" style="color: rgb(30, 30, 46); display: inline-block; white-space: nowrap;"><span style="color:#1e1e2e;" class="nodeLabel">lib.rs::run()<br />App bootstrap<br />State initialization<br />Command registration</span></div></foreignObject></g></g></g></g></g></svg>