<svg aria-roledescription="flowchart-v2" role="graphics-document document" viewBox="-7.5 -8 2015.03125 530" style="max-width: 2015.03px; background-color: transparent;" xmlns:xlink="http://www.w3.org/1999/xlink" xmlns="http://www.w3.org/2000/svg" width="100%" id="my-svg"><style>#my-svg{font-family:"trebuchet ms",verdana,arial,sans-serif;font-size:16px;fill:#ccc;}#my-svg .error-icon{fill:#a44141;}#my-svg .error-text{fill:#ddd;stroke:#ddd;}#my-svg .edge-thickness-normal{stroke-width:2px;}#my-svg .edge-thickness-thick{stroke-width:3.5px;}#my-svg .edge-pattern-solid{stroke-dasharray:0;}#my-svg .edge-pattern-dashed{stroke-dasharray:3;}#my-svg .edge-pattern-dotted{stroke-dasharray:2;}#my-svg .marker{fill:lightgrey;stroke:lightgrey;}#my-svg .marker.cross{stroke:lightgrey;}#my-svg svg{font-family:"trebuchet ms",verdana,arial,sans-serif;font-size:16px;}#my-svg .label{font-family:"trebuchet ms",verdana,arial,sans-serif;color:#ccc;}#my-svg .cluster-label text{fill:#F9FFFE;}#my-svg .cluster-label span,#my-svg p{color:#F9FFFE;}#my-svg .label text,#my-svg span,#my-svg p{fill:#ccc;color:#ccc;}#my-svg .node rect,#my-svg .node circle,#my-svg .node ellipse,#my-svg .node polygon,#my-svg .node path{fill:#1f2020;stroke:#81B1DB;stroke-width:1px;}#my-svg .flowchart-label text{text-anchor:middle;}#my-svg .node .katex path{fill:#000;stroke:#000;stroke-width:1px;}#my-svg .node .label{text-align:center;}#my-svg .node.clickable{cursor:pointer;}#my-svg .arrowheadPath{fill:lightgrey;}#my-svg .edgePath .path{stroke:lightgrey;stroke-width:2.0px;}#my-svg .flowchart-link{stroke:lightgrey;fill:none;}#my-svg .edgeLabel{background-color:hsl(0, 0%, 34.4117647059%);text-align:center;}#my-svg .edgeLabel rect{opacity:0.5;background-color:hsl(0, 0%, 34.4117647059%);fill:hsl(0, 0%, 34.4117647059%);}#my-svg .labelBkg{background-color:rgba(87.75, 87.75, 87.75, 0.5);}#my-svg .cluster rect{fill:hsl(180, 1.5873015873%, 28.3529411765%);stroke:rgba(255, 255, 255, 0.25);stroke-width:1px;}#my-svg .cluster text{fill:#F9FFFE;}#my-svg .cluster span,#my-svg p{color:#F9FFFE;}#my-svg div.mermaidTooltip{position:absolute;text-align:center;max-width:200px;padding:2px;font-family:"trebuchet ms",verdana,arial,sans-serif;font-size:12px;background:hsl(20, 1.5873015873%, 12.3529411765%);border:1px solid rgba(255, 255, 255, 0.25);border-radius:2px;pointer-events:none;z-index:100;}#my-svg .flowchartTitleText{text-anchor:middle;font-size:18px;fill:#ccc;}#my-svg :root{--mermaid-font-family:"trebuchet ms",verdana,arial,sans-serif;}#my-svg .component&gt;*{fill:#1e1e2e!important;stroke:#89b4fa!important;color:#cdd6f4!important;stroke-width:2px!important;}#my-svg .component span{fill:#1e1e2e!important;stroke:#89b4fa!important;color:#cdd6f4!important;stroke-width:2px!important;}#my-svg .component tspan{fill:#cdd6f4!important;}#my-svg .hook&gt;*{fill:#1e1e2e!important;stroke:#a6e3a1!important;color:#cdd6f4!important;stroke-width:2px!important;}#my-svg .hook span{fill:#1e1e2e!important;stroke:#a6e3a1!important;color:#cdd6f4!important;stroke-width:2px!important;}#my-svg .hook tspan{fill:#cdd6f4!important;}#my-svg .store&gt;*{fill:#1e1e2e!important;stroke:#f9e2af!important;color:#cdd6f4!important;stroke-width:2px!important;}#my-svg .store span{fill:#1e1e2e!important;stroke:#f9e2af!important;color:#cdd6f4!important;stroke-width:2px!important;}#my-svg .store tspan{fill:#cdd6f4!important;}#my-svg .lib&gt;*{fill:#1e1e2e!important;stroke:#f5c2e7!important;color:#cdd6f4!important;stroke-width:2px!important;}#my-svg .lib span{fill:#1e1e2e!important;stroke:#f5c2e7!important;color:#cdd6f4!important;stroke-width:2px!important;}#my-svg .lib tspan{fill:#cdd6f4!important;}#my-svg .root&gt;*{fill:#313244!important;stroke:#6c7086!important;color:#cdd6f4!important;stroke-width:1px!important;}#my-svg .root span{fill:#313244!important;stroke:#6c7086!important;color:#cdd6f4!important;stroke-width:1px!important;}#my-svg .root tspan{fill:#cdd6f4!important;}</style><g><marker orient="auto" markerHeight="12" markerWidth="12" markerUnits="userSpaceOnUse" refY="5" refX="6" viewBox="0 0 10 10" class="marker flowchart" id="my-svg_flowchart-pointEnd"><path style="stroke-width: 1; stroke-dasharray: 1, 0;" class="arrowMarkerPath" d="M 0 0 L 10 5 L 0 10 z"/></marker><marker orient="auto" markerHeight="12" markerWidth="12" markerUnits="userSpaceOnUse" refY="5" refX="4.5" viewBox="0 0 10 10" class="marker flowchart" id="my-svg_flowchart-pointStart"><path style="stroke-width: 1; stroke-dasharray: 1, 0;" class="arrowMarkerPath" d="M 0 5 L 10 10 L 10 0 z"/></marker><marker orient="auto" markerHeight="11" markerWidth="11" markerUnits="userSpaceOnUse" refY="5" refX="11" viewBox="0 0 10 10" class="marker flowchart" id="my-svg_flowchart-circleEnd"><circle style="stroke-width: 1; stroke-dasharray: 1, 0;" class="arrowMarkerPath" r="5" cy="5" cx="5"/></marker><marker orient="auto" markerHeight="11" markerWidth="11" markerUnits="userSpaceOnUse" refY="5" refX="-1" viewBox="0 0 10 10" class="marker flowchart" id="my-svg_flowchart-circleStart"><circle style="stroke-width: 1; stroke-dasharray: 1, 0;" class="arrowMarkerPath" r="5" cy="5" cx="5"/></marker><marker orient="auto" markerHeight="11" markerWidth="11" markerUnits="userSpaceOnUse" refY="5.2" refX="12" viewBox="0 0 11 11" class="marker cross flowchart" id="my-svg_flowchart-crossEnd"><path style="stroke-width: 2; stroke-dasharray: 1, 0;" class="arrowMarkerPath" d="M 1,1 l 9,9 M 10,1 l -9,9"/></marker><marker orient="auto" markerHeight="11" markerWidth="11" markerUnits="userSpaceOnUse" refY="5.2" refX="-1" viewBox="0 0 11 11" class="marker cross flowchart" id="my-svg_flowchart-crossStart"><path style="stroke-width: 2; stroke-dasharray: 1, 0;" class="arrowMarkerPath" d="M 1,1 l 9,9 M 10,1 l -9,9"/></marker><g class="root"><g class="clusters"/><g class="edgePaths"/><g class="edgeLabels"/><g class="nodes"><g transform="translate(-7.5, -8)" class="root"><g class="clusters"><g id="React" class="cluster default flowchart-label"><rect height="514" width="1999.03125" y="8" x="8" ry="0" rx="0" style=""/><g transform="translate(944.9609375, 8)" class="cluster-label"><foreignObject height="19" width="125.109375"><div style="display: inline-block; white-space: nowrap;" xmlns="http://www.w3.org/1999/xhtml"><span class="nodeLabel">React Application</span></div></foreignObject></g></g><g id="Components" class="cluster default flowchart-label"><rect height="424" width="307.453125" y="78" x="657.515625" ry="0" rx="0" style=""/><g transform="translate(767.2578125, 78)" class="cluster-label"><foreignObject height="19" width="87.96875"><div style="display: inline-block; white-space: nowrap;" xmlns="http://www.w3.org/1999/xhtml"><span class="nodeLabel">Components</span></div></foreignObject></g></g><g id="Hooks" class="cluster default flowchart-label"><rect height="201" width="263.796875" y="28.5" x="1014.96875" ry="0" rx="0" style=""/><g transform="translate(1125.7734375, 28.5)" class="cluster-label"><foreignObject height="19" width="42.1875"><div style="display: inline-block; white-space: nowrap;" xmlns="http://www.w3.org/1999/xhtml"><span class="nodeLabel">Hooks</span></div></foreignObject></g></g><g id="Stores" class="cluster default flowchart-label"><rect height="249" width="309.921875" y="37.5" x="1328.765625" ry="0" rx="0" style=""/><g transform="translate(1431.078125, 37.5)" class="cluster-label"><foreignObject height="19" width="105.296875"><div style="display: inline-block; white-space: nowrap;" xmlns="http://www.w3.org/1999/xhtml"><span class="nodeLabel">Zustand Stores</span></div></foreignObject></g></g><g id="Lib" class="cluster default flowchart-label"><rect height="438.75" width="293.34375" y="38.75" x="1688.6875" ry="0" rx="0" style=""/><g transform="translate(1788.1171875, 38.75)" class="cluster-label"><foreignObject height="19" width="94.484375"><div style="display: inline-block; white-space: nowrap;" xmlns="http://www.w3.org/1999/xhtml"><span class="nodeLabel">Library Layer</span></div></foreignObject></g></g></g><g class="edgePaths"><path marker-end="url(#my-svg_flowchart-pointEnd)" style="fill:none;" class="edge-thickness-normal edge-pattern-solid flowchart-link LS-Main LE-App" id="L-Main-App-0" d="M204.406,336.5L208.573,336.5C212.74,336.5,221.073,336.5,228.523,336.5C235.973,336.5,242.54,336.5,245.823,336.5L249.106,336.5"/><path marker-end="url(#my-svg_flowchart-pointEnd)" style="fill:none;" class="edge-thickness-normal edge-pattern-solid flowchart-link LS-App LE-TV" id="L-App-TV-0" d="M402.784,300.5L429.927,275.25C457.07,250,511.355,199.5,553.81,174.25C596.266,149,626.891,149,645.486,149C664.082,149,670.649,149,673.932,149L677.216,149"/><path marker-end="url(#my-svg_flowchart-pointEnd)" style="fill:none;" class="edge-thickness-normal edge-pattern-solid flowchart-link LS-App LE-AIP" id="L-App-AIP-0" d="M473.766,306.027L489.078,301.772C504.391,297.518,535.016,289.009,565.641,284.754C596.266,280.5,626.891,280.5,649.851,280.5C672.811,280.5,688.107,280.5,695.755,280.5L703.403,280.5"/><path marker-end="url(#my-svg_flowchart-pointEnd)" style="fill:none;" class="edge-thickness-normal edge-pattern-solid flowchart-link LS-App LE-SV" id="L-App-SV-0" d="M449.45,372.5L468.815,380.667C488.18,388.833,526.911,405.167,561.588,413.333C596.266,421.5,626.891,421.5,650.624,421.5C674.358,421.5,691.201,421.5,699.622,421.5L708.044,421.5"/><path marker-end="url(#my-svg_flowchart-pointEnd)" style="fill:none;" class="edge-thickness-normal edge-pattern-solid flowchart-link LS-TV LE-UT" id="L-TV-UT-0" d="M939.969,149L944.135,149C948.302,149,956.635,149,964.969,149C973.302,149,981.635,149,989.969,149C998.302,149,1006.635,149,1014.085,149C1021.535,149,1028.102,149,1031.385,149L1034.669,149"/><path marker-end="url(#my-svg_flowchart-pointEnd)" style="fill:none;" class="edge-thickness-normal edge-pattern-solid flowchart-link LS-UT LE-TS" id="L-UT-TS-0" d="M1253.766,108.477L1257.932,106.897C1262.099,105.318,1270.432,102.159,1278.766,100.579C1287.099,99,1295.432,99,1303.766,99C1312.099,99,1320.432,99,1334.503,99C1348.574,99,1368.383,99,1378.288,99L1388.192,99"/><path marker-end="url(#my-svg_flowchart-pointEnd)" style="fill:none;" class="edge-thickness-normal edge-pattern-solid flowchart-link LS-AIP LE-AS" id="L-AIP-AS-0" d="M913.781,270.161L922.313,269.301C930.844,268.441,947.906,266.72,960.604,265.86C973.302,265,981.635,265,989.969,265C998.302,265,1006.635,265,1032.785,265C1058.935,265,1102.901,265,1146.867,265C1190.833,265,1234.799,265,1260.949,265C1287.099,265,1295.432,265,1303.766,256.75C1312.099,248.5,1320.432,232,1327.882,223.75C1335.332,215.5,1341.899,215.5,1345.182,215.5L1348.466,215.5"/><path marker-end="url(#my-svg_flowchart-pointEnd)" style="fill:none;" class="edge-thickness-normal edge-pattern-solid flowchart-link LS-UT LE-TB" id="L-UT-TB-0" d="M1253.766,173.516L1257.932,174.472C1262.099,175.428,1270.432,177.339,1278.766,178.294C1287.099,179.25,1295.432,179.25,1303.766,200.458C1312.099,221.667,1320.432,264.083,1350.426,285.292C1380.419,306.5,1432.073,306.5,1483.727,306.5C1535.38,306.5,1587.034,306.5,1617.027,306.5C1647.021,306.5,1655.354,306.5,1663.688,306.5C1672.021,306.5,1680.354,306.5,1695.221,311.278C1710.087,316.057,1731.487,325.613,1742.187,330.392L1752.887,335.17"/><path marker-end="url(#my-svg_flowchart-pointEnd)" style="fill:none;" class="edge-thickness-normal edge-pattern-solid flowchart-link LS-AIP LE-TB" id="L-AIP-TB-0" d="M913.781,317.52L922.313,320.6C930.844,323.68,947.906,329.84,960.604,332.92C973.302,336,981.635,336,989.969,336C998.302,336,1006.635,336,1032.785,336C1058.935,336,1102.901,336,1146.867,336C1190.833,336,1234.799,336,1260.949,336C1287.099,336,1295.432,336,1303.766,336C1312.099,336,1320.432,336,1350.426,336C1380.419,336,1432.073,336,1483.727,336C1535.38,336,1587.034,336,1617.027,336C1647.021,336,1655.354,336,1663.688,336C1672.021,336,1680.354,336,1695.169,338.614C1709.985,341.227,1731.282,346.455,1741.931,349.068L1752.579,351.682"/><path marker-end="url(#my-svg_flowchart-pointEnd)" style="fill:none;" class="edge-thickness-normal edge-pattern-solid flowchart-link LS-SV LE-TB" id="L-SV-TB-0" d="M909.141,421.5L918.445,421.5C927.75,421.5,946.359,421.5,959.831,421.5C973.302,421.5,981.635,421.5,989.969,421.5C998.302,421.5,1006.635,421.5,1032.785,421.5C1058.935,421.5,1102.901,421.5,1146.867,421.5C1190.833,421.5,1234.799,421.5,1260.949,421.5C1287.099,421.5,1295.432,421.5,1303.766,421.5C1312.099,421.5,1320.432,421.5,1350.426,421.5C1380.419,421.5,1432.073,421.5,1483.727,421.5C1535.38,421.5,1587.034,421.5,1617.027,421.5C1647.021,421.5,1655.354,421.5,1663.688,421.5C1672.021,421.5,1680.354,421.5,1695.19,417.899C1710.027,414.298,1731.366,407.097,1742.035,403.496L1752.705,399.895"/><path marker-end="url(#my-svg_flowchart-pointEnd)" style="fill:none;" class="edge-thickness-normal edge-pattern-solid flowchart-link LS-TS LE-TY" id="L-TS-TY-0" d="M1573.961,99L1584.749,99C1595.536,99,1617.112,99,1632.066,99C1647.021,99,1655.354,99,1663.688,99C1672.021,99,1680.354,99,1687.851,100.135C1695.349,101.271,1702.01,103.542,1705.34,104.677L1708.671,105.812"/><path marker-end="url(#my-svg_flowchart-pointEnd)" style="fill:none;" class="edge-thickness-normal edge-pattern-solid flowchart-link LS-AS LE-TY" id="L-AS-TY-0" d="M1613.688,215.5L1617.854,215.5C1622.021,215.5,1630.354,215.5,1638.688,215.5C1647.021,215.5,1655.354,215.5,1663.688,215.5C1672.021,215.5,1680.354,215.5,1691.436,212.365C1702.518,209.23,1716.348,202.959,1723.263,199.824L1730.178,196.689"/></g><g class="edgeLabels"><g class="edgeLabel"><g transform="translate(0, 0)" class="label"><foreignObject height="0" width="0"><div style="display: inline-block; white-space: nowrap;" xmlns="http://www.w3.org/1999/xhtml"><span class="edgeLabel"></span></div></foreignObject></g></g><g class="edgeLabel"><g transform="translate(0, 0)" class="label"><foreignObject height="0" width="0"><div style="display: inline-block; white-space: nowrap;" xmlns="http://www.w3.org/1999/xhtml"><span class="edgeLabel"></span></div></foreignObject></g></g><g transform="translate(565.640625, 280.5)" class="edgeLabel"><g transform="translate(-45.359375, -9.5)" class="label"><foreignObject height="19" width="90.71875"><div style="display: inline-block; white-space: nowrap;" xmlns="http://www.w3.org/1999/xhtml"><span class="edgeLabel">showAI state</span></div></foreignObject></g></g><g transform="translate(565.640625, 421.5)" class="edgeLabel"><g transform="translate(-66.875, -9.5)" class="label"><foreignObject height="19" width="133.75"><div style="display: inline-block; white-space: nowrap;" xmlns="http://www.w3.org/1999/xhtml"><span class="edgeLabel">showSettings state</span></div></foreignObject></g></g><g class="edgeLabel"><g transform="translate(0, 0)" class="label"><foreignObject height="0" width="0"><div style="display: inline-block; white-space: nowrap;" xmlns="http://www.w3.org/1999/xhtml"><span class="edgeLabel"></span></div></foreignObject></g></g><g class="edgeLabel"><g transform="translate(0, 0)" class="label"><foreignObject height="0" width="0"><div style="display: inline-block; white-space: nowrap;" xmlns="http://www.w3.org/1999/xhtml"><span class="edgeLabel"></span></div></foreignObject></g></g><g class="edgeLabel"><g transform="translate(0, 0)" class="label"><foreignObject height="0" width="0"><div style="display: inline-block; white-space: nowrap;" xmlns="http://www.w3.org/1999/xhtml"><span class="edgeLabel"></span></div></foreignObject></g></g><g class="edgeLabel"><g transform="translate(0, 0)" class="label"><foreignObject height="0" width="0"><div style="display: inline-block; white-space: nowrap;" xmlns="http://www.w3.org/1999/xhtml"><span class="edgeLabel"></span></div></foreignObject></g></g><g class="edgeLabel"><g transform="translate(0, 0)" class="label"><foreignObject height="0" width="0"><div style="display: inline-block; white-space: nowrap;" xmlns="http://www.w3.org/1999/xhtml"><span class="edgeLabel"></span></div></foreignObject></g></g><g class="edgeLabel"><g transform="translate(0, 0)" class="label"><foreignObject height="0" width="0"><div style="display: inline-block; white-space: nowrap;" xmlns="http://www.w3.org/1999/xhtml"><span class="edgeLabel"></span></div></foreignObject></g></g><g class="edgeLabel"><g transform="translate(0, 0)" class="label"><foreignObject height="0" width="0"><div style="display: inline-block; white-space: nowrap;" xmlns="http://www.w3.org/1999/xhtml"><span class="edgeLabel"></span></div></foreignObject></g></g><g class="edgeLabel"><g transform="translate(0, 0)" class="label"><foreignObject height="0" width="0"><div style="display: inline-block; white-space: nowrap;" xmlns="http://www.w3.org/1999/xhtml"><span class="edgeLabel"></span></div></foreignObject></g></g></g><g class="nodes"><g transform="translate(118.703125, 336.5)" data-id="Main" data-node="true" id="flowchart-Main-0" class="node default root flowchart-label"><rect height="53" width="171.40625" y="-26.5" x="-85.703125" ry="0" rx="0" style="" class="basic label-container"/><g transform="translate(-78.203125, -19)" style="" class="label"><rect/><foreignObject height="38" width="156.40625"><div style="display: inline-block; white-space: nowrap;" xmlns="http://www.w3.org/1999/xhtml"><span class="nodeLabel">main.tsx<br />ReactDOM.createRoot</span></div></foreignObject></g></g><g transform="translate(364.0859375, 336.5)" data-id="App" data-node="true" id="flowchart-App-1" class="node default root flowchart-label"><rect height="72" width="219.359375" y="-36" x="-109.6796875" ry="0" rx="0" style="" class="basic label-container"/><g transform="translate(-102.1796875, -28.5)" style="" class="label"><rect/><foreignObject height="57" width="204.359375"><div style="display: inline-block; white-space: nowrap;" xmlns="http://www.w3.org/1999/xhtml"><span class="nodeLabel">App.tsx<br />Layout + Keyboard Shortcuts<br />Ctrl+Shift+A / Ctrl+,</span></div></foreignObject></g></g><g transform="translate(811.2421875, 149)" data-id="TV" data-node="true" id="flowchart-TV-4" class="node default component flowchart-label"><rect height="72" width="257.453125" y="-36" x="-128.7265625" ry="0" rx="0" style="" class="basic label-container"/><g transform="translate(-121.2265625, -28.5)" style="" class="label"><rect/><foreignObject height="57" width="242.453125"><div style="display: inline-block; white-space: nowrap;" xmlns="http://www.w3.org/1999/xhtml"><span class="nodeLabel">TerminalView<br />54 lines<br />xterm.js container + error banner</span></div></foreignObject></g></g><g transform="translate(811.2421875, 280.5)" data-id="AIP" data-node="true" id="flowchart-AIP-5" class="node default component flowchart-label"><rect height="91" width="205.078125" y="-45.5" x="-102.5390625" ry="0" rx="0" style="" class="basic label-container"/><g transform="translate(-95.0390625, -38)" style="" class="label"><rect/><foreignObject height="76" width="190.078125"><div style="display: inline-block; white-space: nowrap;" xmlns="http://www.w3.org/1999/xhtml"><span class="nodeLabel">AIPanel<br />237 lines<br />Chat sidebar, /cmd prefix,<br />streaming display</span></div></foreignObject></g></g><g transform="translate(811.2421875, 421.5)" data-id="SV" data-node="true" id="flowchart-SV-6" class="node default component flowchart-label"><rect height="91" width="195.796875" y="-45.5" x="-97.8984375" ry="0" rx="0" style="" class="basic label-container"/><g transform="translate(-90.3984375, -38)" style="" class="label"><rect/><foreignObject height="76" width="180.796875"><div style="display: inline-block; white-space: nowrap;" xmlns="http://www.w3.org/1999/xhtml"><span class="nodeLabel">SettingsView<br />188 lines<br />API key, model selection,<br />keyboard shortcuts</span></div></foreignObject></g></g><g transform="translate(1146.8671875, 149)" data-id="UT" data-node="true" id="flowchart-UT-13" class="node default hook flowchart-label"><rect height="91" width="213.796875" y="-45.5" x="-106.8984375" ry="0" rx="0" style="" class="basic label-container"/><g transform="translate(-99.3984375, -38)" style="" class="label"><rect/><foreignObject height="76" width="198.796875"><div style="display: inline-block; white-space: nowrap;" xmlns="http://www.w3.org/1999/xhtml"><span class="nodeLabel">useTerminal<br />148 lines<br />xterm.js lifecycle,<br />PTY session, event listeners</span></div></foreignObject></g></g><g transform="translate(1483.7265625, 99)" data-id="TS" data-node="true" id="flowchart-TS-16" class="node default store flowchart-label"><rect height="53" width="180.46875" y="-26.5" x="-90.234375" ry="0" rx="0" style="" class="basic label-container"/><g transform="translate(-82.734375, -19)" style="" class="label"><rect/><foreignObject height="38" width="165.46875"><div style="display: inline-block; white-space: nowrap;" xmlns="http://www.w3.org/1999/xhtml"><span class="nodeLabel">terminalStore<br />sessionId, blocks, error</span></div></foreignObject></g></g><g transform="translate(1483.7265625, 215.5)" data-id="AS" data-node="true" id="flowchart-AS-17" class="node default store flowchart-label"><rect height="72" width="259.921875" y="-36" x="-129.9609375" ry="0" rx="0" style="" class="basic label-container"/><g transform="translate(-122.4609375, -28.5)" style="" class="label"><rect/><foreignObject height="57" width="244.921875"><div style="display: inline-block; white-space: nowrap;" xmlns="http://www.w3.org/1999/xhtml"><span class="nodeLabel">aiStore<br />isStreaming, streamingText,<br />conversations, activeConversation</span></div></foreignObject></g></g><g transform="translate(1835.359375, 372)" data-id="TB" data-node="true" id="flowchart-TB-22" class="node default lib flowchart-label"><rect height="72" width="155.265625" y="-36" x="-77.6328125" ry="0" rx="0" style="" class="basic label-container"/><g transform="translate(-70.1328125, -28.5)" style="" class="label"><rect/><foreignObject height="57" width="140.265625"><div style="display: inline-block; white-space: nowrap;" xmlns="http://www.w3.org/1999/xhtml"><span class="nodeLabel">tauri-bridge.ts<br />162 lines<br />Typed IPC wrappers</span></div></foreignObject></g></g><g transform="translate(1835.359375, 149)" data-id="TY" data-node="true" id="flowchart-TY-23" class="node default lib flowchart-label"><rect height="91" width="243.34375" y="-45.5" x="-121.671875" ry="0" rx="0" style="" class="basic label-container"/><g transform="translate(-114.171875, -38)" style="" class="label"><rect/><foreignObject height="76" width="228.34375"><div style="display: inline-block; white-space: nowrap;" xmlns="http://www.w3.org/1999/xhtml"><span class="nodeLabel">types.ts<br />60 lines<br />Block, ShellContext, AppConfig,<br />AIMessage, AIConversation</span></div></foreignObject></g></g></g></g></g></g></g></svg>