<svg aria-roledescription="flowchart-v2" role="graphics-document document" viewBox="-8 -8 1187.734375 1452" style="max-width: 1187.73px; background-color: transparent;" xmlns:xlink="http://www.w3.org/1999/xlink" xmlns="http://www.w3.org/2000/svg" width="100%" id="my-svg"><style>#my-svg{font-family:"trebuchet ms",verdana,arial,sans-serif;font-size:16px;fill:#ccc;}#my-svg .error-icon{fill:#a44141;}#my-svg .error-text{fill:#ddd;stroke:#ddd;}#my-svg .edge-thickness-normal{stroke-width:2px;}#my-svg .edge-thickness-thick{stroke-width:3.5px;}#my-svg .edge-pattern-solid{stroke-dasharray:0;}#my-svg .edge-pattern-dashed{stroke-dasharray:3;}#my-svg .edge-pattern-dotted{stroke-dasharray:2;}#my-svg .marker{fill:lightgrey;stroke:lightgrey;}#my-svg .marker.cross{stroke:lightgrey;}#my-svg svg{font-family:"trebuchet ms",verdana,arial,sans-serif;font-size:16px;}#my-svg .label{font-family:"trebuchet ms",verdana,arial,sans-serif;color:#ccc;}#my-svg .cluster-label text{fill:#F9FFFE;}#my-svg .cluster-label span,#my-svg p{color:#F9FFFE;}#my-svg .label text,#my-svg span,#my-svg p{fill:#ccc;color:#ccc;}#my-svg .node rect,#my-svg .node circle,#my-svg .node ellipse,#my-svg .node polygon,#my-svg .node path{fill:#1f2020;stroke:#81B1DB;stroke-width:1px;}#my-svg .flowchart-label text{text-anchor:middle;}#my-svg .node .katex path{fill:#000;stroke:#000;stroke-width:1px;}#my-svg .node .label{text-align:center;}#my-svg .node.clickable{cursor:pointer;}#my-svg .arrowheadPath{fill:lightgrey;}#my-svg .edgePath .path{stroke:lightgrey;stroke-width:2.0px;}#my-svg .flowchart-link{stroke:lightgrey;fill:none;}#my-svg .edgeLabel{background-color:hsl(0, 0%, 34.4117647059%);text-align:center;}#my-svg .edgeLabel rect{opacity:0.5;background-color:hsl(0, 0%, 34.4117647059%);fill:hsl(0, 0%, 34.4117647059%);}#my-svg .labelBkg{background-color:rgba(87.75, 87.75, 87.75, 0.5);}#my-svg .cluster rect{fill:hsl(180, 1.5873015873%, 28.3529411765%);stroke:rgba(255, 255, 255, 0.25);stroke-width:1px;}#my-svg .cluster text{fill:#F9FFFE;}#my-svg .cluster span,#my-svg p{color:#F9FFFE;}#my-svg div.mermaidTooltip{position:absolute;text-align:center;max-width:200px;padding:2px;font-family:"trebuchet ms",verdana,arial,sans-serif;font-size:12px;background:hsl(20, 1.5873015873%, 12.3529411765%);border:1px solid rgba(255, 255, 255, 0.25);border-radius:2px;pointer-events:none;z-index:100;}#my-svg .flowchartTitleText{text-anchor:middle;font-size:18px;fill:#ccc;}#my-svg :root{--mermaid-font-family:"trebuchet ms",verdana,arial,sans-serif;}#my-svg .frontend&gt;*{fill:#1e1e2e!important;stroke:#89b4fa!important;color:#cdd6f4!important;stroke-width:2px!important;}#my-svg .frontend span{fill:#1e1e2e!important;stroke:#89b4fa!important;color:#cdd6f4!important;stroke-width:2px!important;}#my-svg .frontend tspan{fill:#cdd6f4!important;}#my-svg .command&gt;*{fill:#313244!important;stroke:#a6e3a1!important;color:#cdd6f4!important;stroke-width:1px!important;}#my-svg .command span{fill:#313244!important;stroke:#a6e3a1!important;color:#cdd6f4!important;stroke-width:1px!important;}#my-svg .command tspan{fill:#cdd6f4!important;}#my-svg .event&gt;*{fill:#313244!important;stroke:#f9e2af!important;color:#cdd6f4!important;stroke-width:1px!important;}#my-svg .event span{fill:#313244!important;stroke:#f9e2af!important;color:#cdd6f4!important;stroke-width:1px!important;}#my-svg .event tspan{fill:#cdd6f4!important;}#my-svg .backend&gt;*{fill:#1e1e2e!important;stroke:#f5c2e7!important;color:#cdd6f4!important;stroke-width:2px!important;}#my-svg .backend span{fill:#1e1e2e!important;stroke:#f5c2e7!important;color:#cdd6f4!important;stroke-width:2px!important;}#my-svg .backend tspan{fill:#cdd6f4!important;}</style><g><marker orient="auto" markerHeight="12" markerWidth="12" markerUnits="userSpaceOnUse" refY="5" refX="6" viewBox="0 0 10 10" class="marker flowchart" id="my-svg_flowchart-pointEnd"><path style="stroke-width: 1; stroke-dasharray: 1, 0;" class="arrowMarkerPath" d="M 0 0 L 10 5 L 0 10 z"/></marker><marker orient="auto" markerHeight="12" markerWidth="12" markerUnits="userSpaceOnUse" refY="5" refX="4.5" viewBox="0 0 10 10" class="marker flowchart" id="my-svg_flowchart-pointStart"><path style="stroke-width: 1; stroke-dasharray: 1, 0;" class="arrowMarkerPath" d="M 0 5 L 10 10 L 10 0 z"/></marker><marker orient="auto" markerHeight="11" markerWidth="11" markerUnits="userSpaceOnUse" refY="5" refX="11" viewBox="0 0 10 10" class="marker flowchart" id="my-svg_flowchart-circleEnd"><circle style="stroke-width: 1; stroke-dasharray: 1, 0;" class="arrowMarkerPath" r="5" cy="5" cx="5"/></marker><marker orient="auto" markerHeight="11" markerWidth="11" markerUnits="userSpaceOnUse" refY="5" refX="-1" viewBox="0 0 10 10" class="marker flowchart" id="my-svg_flowchart-circleStart"><circle style="stroke-width: 1; stroke-dasharray: 1, 0;" class="arrowMarkerPath" r="5" cy="5" cx="5"/></marker><marker orient="auto" markerHeight="11" markerWidth="11" markerUnits="userSpaceOnUse" refY="5.2" refX="12" viewBox="0 0 11 11" class="marker cross flowchart" id="my-svg_flowchart-crossEnd"><path style="stroke-width: 2; stroke-dasharray: 1, 0;" class="arrowMarkerPath" d="M 1,1 l 9,9 M 10,1 l -9,9"/></marker><marker orient="auto" markerHeight="11" markerWidth="11" markerUnits="userSpaceOnUse" refY="5.2" refX="-1" viewBox="0 0 11 11" class="marker cross flowchart" id="my-svg_flowchart-crossStart"><path style="stroke-width: 2; stroke-dasharray: 1, 0;" class="arrowMarkerPath" d="M 1,1 l 9,9 M 10,1 l -9,9"/></marker><g class="root"><g class="clusters"><g id="Backend" class="cluster default flowchart-label"><rect height="304" width="1171.734375" y="0" x="0" ry="0" rx="0" style=""/><g transform="translate(532.453125, 0)" class="cluster-label"><foreignObject height="19" width="106.828125"><div style="display: inline-block; white-space: nowrap;" xmlns="http://www.w3.org/1999/xhtml"><span class="nodeLabel">Backend (Rust)</span></div></foreignObject></g></g><g id="Events_BtoF" class="cluster default flowchart-label"><rect height="608" width="252.390625" y="382" x="218.078125" ry="0" rx="0" style=""/><g transform="translate(218.078125, 382)" class="cluster-label"><foreignObject height="19" width="252.390625"><div style="display: inline-block; white-space: nowrap;" xmlns="http://www.w3.org/1999/xhtml"><span class="nodeLabel">Tauri Events (Backend to Frontend)</span></div></foreignObject></g></g><g id="Commands_FtoB" class="cluster default flowchart-label"><rect height="1112" width="282.953125" y="324" x="674.34375" ry="0" rx="0" style=""/><g transform="translate(674.34375, 324)" class="cluster-label"><foreignObject height="19" width="282.953125"><div style="display: inline-block; white-space: nowrap;" xmlns="http://www.w3.org/1999/xhtml"><span class="nodeLabel">Tauri Commands (Frontend to Backend)</span></div></foreignObject></g></g><g id="Frontend" class="cluster default flowchart-label"><rect height="1000" width="161.265625" y="336" x="484.96875" ry="0" rx="0" style=""/><g transform="translate(504.9453125, 336)" class="cluster-label"><foreignObject height="19" width="121.3125"><div style="display: inline-block; white-space: nowrap;" xmlns="http://www.w3.org/1999/xhtml"><span class="nodeLabel">Frontend (React)</span></div></foreignObject></g></g></g><g class="edgePaths"><path marker-end="url(#my-svg_flowchart-pointEnd)" style="fill:none;" class="edge-thickness-normal edge-pattern-solid flowchart-link LS-TV2 LE-C1" id="L-TV2-C1-0" d="M575.255,501L587.085,480.167C598.915,459.333,622.575,417.667,638.571,396.833C654.568,376,662.901,376,671.234,376C679.568,376,687.901,376,695.351,376C702.801,376,709.368,376,712.651,376L715.934,376"/><path marker-end="url(#my-svg_flowchart-pointEnd)" style="fill:none;" class="edge-thickness-normal edge-pattern-solid flowchart-link LS-TV2 LE-C2" id="L-TV2-C2-0" d="M589.235,501L598.735,494.167C608.235,487.333,627.235,473.667,640.901,466.833C654.568,460,662.901,460,671.234,460C679.568,460,687.901,460,702.147,460C716.392,460,736.55,460,746.629,460L756.708,460"/><path marker-end="url(#my-svg_flowchart-pointEnd)" style="fill:none;" class="edge-thickness-normal edge-pattern-solid flowchart-link LS-TV2 LE-C3" id="L-TV2-C3-0" d="M618.323,535L622.975,536.5C627.627,538,636.931,541,645.749,542.5C654.568,544,662.901,544,671.234,544C679.568,544,687.901,544,703.712,544C719.522,544,742.81,544,754.454,544L766.098,544"/><path marker-end="url(#my-svg_flowchart-pointEnd)" style="fill:none;" class="edge-thickness-normal edge-pattern-solid flowchart-link LS-TV2 LE-C4" id="L-TV2-C4-0" d="M578.063,535L589.425,550.5C600.787,566,623.511,597,639.039,612.5C654.568,628,662.901,628,671.234,628C679.568,628,687.901,628,696.177,628C704.452,628,712.67,628,716.779,628L720.888,628"/><path marker-end="url(#my-svg_flowchart-pointEnd)" style="fill:none;" class="edge-thickness-normal edge-pattern-solid flowchart-link LS-AIP2 LE-C5" id="L-AIP2-C5-0" d="M575.255,837L587.085,816.167C598.915,795.333,622.575,753.667,638.571,732.833C654.568,712,662.901,712,671.234,712C679.568,712,687.901,712,696.26,712C704.619,712,713.003,712,717.195,712L721.388,712"/><path marker-end="url(#my-svg_flowchart-pointEnd)" style="fill:none;" class="edge-thickness-normal edge-pattern-solid flowchart-link LS-AIP2 LE-C6" id="L-AIP2-C6-0" d="M589.235,837L598.735,830.167C608.235,823.333,627.235,809.667,640.901,802.833C654.568,796,662.901,796,671.234,796C679.568,796,687.901,796,700.048,796C712.194,796,728.154,796,736.134,796L744.114,796"/><path marker-end="url(#my-svg_flowchart-pointEnd)" style="fill:none;" class="edge-thickness-normal edge-pattern-solid flowchart-link LS-AIP2 LE-C7" id="L-AIP2-C7-0" d="M599.43,864.908L607.23,867.423C615.031,869.939,630.633,874.969,642.6,877.485C654.568,880,662.901,880,671.234,880C679.568,880,687.901,880,705.467,880C723.033,880,749.831,880,763.23,880L776.63,880"/><path marker-end="url(#my-svg_flowchart-pointEnd)" style="fill:none;" class="edge-thickness-normal edge-pattern-solid flowchart-link LS-AIP2 LE-C8" id="L-AIP2-C8-0" d="M578.063,871L589.425,886.5C600.787,902,623.511,933,639.039,948.5C654.568,964,662.901,964,671.234,964C679.568,964,687.901,964,704.216,964C720.53,964,744.826,964,756.974,964L769.122,964"/><path marker-end="url(#my-svg_flowchart-pointEnd)" style="fill:none;" class="edge-thickness-normal edge-pattern-solid flowchart-link LS-SV2 LE-C9" id="L-SV2-C9-0" d="M575.255,1173L587.085,1152.167C598.915,1131.333,622.575,1089.667,638.571,1068.833C654.568,1048,662.901,1048,671.234,1048C679.568,1048,687.901,1048,703.595,1048C719.288,1048,742.342,1048,753.868,1048L765.395,1048"/><path marker-end="url(#my-svg_flowchart-pointEnd)" style="fill:none;" class="edge-thickness-normal edge-pattern-solid flowchart-link LS-SV2 LE-C10" id="L-SV2-C10-0" d="M589.235,1173L598.735,1166.167C608.235,1159.333,627.235,1145.667,640.901,1138.833C654.568,1132,662.901,1132,671.234,1132C679.568,1132,687.901,1132,703.723,1132C719.546,1132,742.857,1132,754.513,1132L766.169,1132"/><path marker-end="url(#my-svg_flowchart-pointEnd)" style="fill:none;" class="edge-thickness-normal edge-pattern-solid flowchart-link LS-SV2 LE-C11" id="L-SV2-C11-0" d="M618.323,1207L622.975,1208.5C627.627,1210,636.931,1213,645.749,1214.5C654.568,1216,662.901,1216,671.234,1216C679.568,1216,687.901,1216,701.557,1216C715.213,1216,734.191,1216,743.68,1216L753.169,1216"/><path marker-end="url(#my-svg_flowchart-pointEnd)" style="fill:none;" class="edge-thickness-normal edge-pattern-solid flowchart-link LS-SV2 LE-C12" id="L-SV2-C12-0" d="M578.063,1207L589.425,1222.5C600.787,1238,623.511,1269,639.039,1284.5C654.568,1300,662.901,1300,671.234,1300C679.568,1300,687.901,1300,702.617,1300C717.332,1300,738.43,1300,748.979,1300L759.528,1300"/><path marker-end="url(#my-svg_flowchart-pointEnd)" style="fill:none;" class="edge-thickness-normal edge-pattern-solid flowchart-link LS-C1 LE-BCT" id="L-C1-BCT-0" d="M810.11,359L791.131,302.5C772.151,246,734.193,133,711.047,76.5C687.901,20,679.568,20,671.234,20C662.901,20,654.568,20,636.962,20C619.357,20,592.479,20,565.602,20C538.724,20,511.846,20,494.241,20C476.635,20,468.302,20,459.969,20C451.635,20,443.302,20,424.02,20C404.737,20,374.505,20,344.273,20C314.042,20,283.81,20,264.527,20C245.245,20,236.911,20,219.876,26.756C202.84,33.512,177.102,47.024,164.233,53.78L151.364,60.536"/><path marker-end="url(#my-svg_flowchart-pointEnd)" style="fill:none;" class="edge-thickness-normal edge-pattern-solid flowchart-link LS-C2 LE-BCT" id="L-C2-BCT-0" d="M810.98,443L791.856,375.833C772.731,308.667,734.483,174.333,711.192,107.167C687.901,40,679.568,40,671.234,40C662.901,40,654.568,40,636.962,40C619.357,40,592.479,40,565.602,40C538.724,40,511.846,40,494.241,40C476.635,40,468.302,40,459.969,40C451.635,40,443.302,40,424.02,40C404.737,40,374.505,40,344.273,40C314.042,40,283.81,40,264.527,40C245.245,40,236.911,40,222.626,43.542C208.34,47.083,188.102,54.166,177.983,57.708L167.864,61.249"/><path marker-end="url(#my-svg_flowchart-pointEnd)" style="fill:none;" class="edge-thickness-normal edge-pattern-solid flowchart-link LS-C3 LE-BCT" id="L-C3-BCT-0" d="M811.62,527L792.389,449.167C773.158,371.333,734.696,215.667,711.299,137.833C687.901,60,679.568,60,671.234,60C662.901,60,654.568,60,636.962,60C619.357,60,592.479,60,565.602,60C538.724,60,511.846,60,494.241,60C476.635,60,468.302,60,459.969,60C451.635,60,443.302,60,424.02,60C404.737,60,374.505,60,344.273,60C314.042,60,283.81,60,264.527,60C245.245,60,236.911,60,229.448,60.577C221.985,61.154,215.392,62.308,212.095,62.884L208.799,63.461"/><path marker-end="url(#my-svg_flowchart-pointEnd)" style="fill:none;" class="edge-thickness-normal edge-pattern-solid flowchart-link LS-C4 LE-BCT" id="L-C4-BCT-0" d="M812.111,611L792.798,522.5C773.485,434,734.86,257,711.38,168.5C687.901,80,679.568,80,671.234,80C662.901,80,654.568,80,636.962,80C619.357,80,592.479,80,565.602,80C538.724,80,511.846,80,494.241,80C476.635,80,468.302,80,459.969,80C451.635,80,443.302,80,424.02,80C404.737,80,374.505,80,344.273,80C314.042,80,283.81,80,264.527,80C245.245,80,236.911,80,229.461,80C222.011,80,215.445,80,212.161,80L208.878,80"/><path marker-end="url(#my-svg_flowchart-pointEnd)" style="fill:none;" class="edge-thickness-normal edge-pattern-solid flowchart-link LS-C5 LE-BCA" id="L-C5-BCA-0" d="M812.488,695L793.112,596.167C773.737,497.333,734.985,299.667,711.443,200.833C687.901,102,679.568,102,671.234,102C662.901,102,654.568,102,636.962,102C619.357,102,592.479,102,565.602,102C538.724,102,511.846,102,494.241,102C476.635,102,468.302,102,459.969,102C451.635,102,443.302,102,424.02,102C404.737,102,374.505,102,344.273,102C314.042,102,283.81,102,264.527,102C245.245,102,236.911,102,219.696,109.079C202.48,116.158,176.383,130.315,163.334,137.394L150.285,144.473"/><path marker-end="url(#my-svg_flowchart-pointEnd)" style="fill:none;" class="edge-thickness-normal edge-pattern-solid flowchart-link LS-C6 LE-BCA" id="L-C6-BCA-0" d="M812.804,779L793.376,669.5C773.947,560,735.091,341,711.496,231.5C687.901,122,679.568,122,671.234,122C662.901,122,654.568,122,636.962,122C619.357,122,592.479,122,565.602,122C538.724,122,511.846,122,494.241,122C476.635,122,468.302,122,459.969,122C451.635,122,443.302,122,424.02,122C404.737,122,374.505,122,344.273,122C314.042,122,283.81,122,264.527,122C245.245,122,236.911,122,222.236,125.862C207.56,129.724,186.542,137.448,176.033,141.31L165.524,145.172"/><path marker-end="url(#my-svg_flowchart-pointEnd)" style="fill:none;" class="edge-thickness-normal edge-pattern-solid flowchart-link LS-C7 LE-BCA" id="L-C7-BCA-0" d="M813.066,863L793.594,742.833C774.122,622.667,735.178,382.333,711.54,262.167C687.901,142,679.568,142,671.234,142C662.901,142,654.568,142,636.962,142C619.357,142,592.479,142,565.602,142C538.724,142,511.846,142,494.241,142C476.635,142,468.302,142,459.969,142C451.635,142,443.302,142,424.02,142C404.737,142,374.505,142,344.273,142C314.042,142,283.81,142,264.527,142C245.245,142,236.911,142,225.443,143.406C213.974,144.811,199.371,147.622,192.069,149.028L184.767,150.433"/><path marker-end="url(#my-svg_flowchart-pointEnd)" style="fill:none;" class="edge-thickness-normal edge-pattern-solid flowchart-link LS-C8 LE-BCA" id="L-C8-BCA-0" d="M813.279,947L793.772,816.5C774.264,686,735.249,425,711.575,294.5C687.901,164,679.568,164,671.234,164C662.901,164,654.568,164,636.962,164C619.357,164,592.479,164,565.602,164C538.724,164,511.846,164,494.241,164C476.635,164,468.302,164,459.969,164C451.635,164,443.302,164,424.02,164C404.737,164,374.505,164,344.273,164C314.042,164,283.81,164,264.527,164C245.245,164,236.911,164,225.459,164C214.006,164,199.434,164,192.148,164L184.863,164"/><path marker-end="url(#my-svg_flowchart-pointEnd)" style="fill:none;" class="edge-thickness-normal edge-pattern-solid flowchart-link LS-C9 LE-BCC" id="L-C9-BCC-0" d="M860.945,1048L873.355,1048C885.766,1048,910.586,1048,927.163,892C943.74,736,952.073,424,965.54,271.521C979.006,119.041,997.606,126.082,1006.906,129.603L1016.206,133.124"/><path marker-end="url(#my-svg_flowchart-pointEnd)" style="fill:none;" class="edge-thickness-normal edge-pattern-solid flowchart-link LS-C10 LE-BCC" id="L-C10-BCC-0" d="M860.172,1132L872.711,1132C885.25,1132,910.328,1132,927.034,965.333C943.74,798.667,952.073,465.333,959.538,299.291C967.004,133.249,973.601,134.498,976.9,135.122L980.199,135.746"/><path marker-end="url(#my-svg_flowchart-pointEnd)" style="fill:none;" class="edge-thickness-normal edge-pattern-solid flowchart-link LS-C11 LE-BCC" id="L-C11-BCC-0" d="M873.172,1216L883.544,1216C893.917,1216,914.661,1216,929.201,1038.667C943.74,861.333,952.073,506.667,959.523,329.333C966.973,152,973.54,152,976.823,152L980.106,152"/><path marker-end="url(#my-svg_flowchart-pointEnd)" style="fill:none;" class="edge-thickness-normal edge-pattern-solid flowchart-link LS-C12 LE-BCC" id="L-C12-BCC-0" d="M866.813,1300L878.245,1300C889.677,1300,912.542,1300,928.141,1112C943.74,924,952.073,548,959.538,359.376C967.004,170.751,973.601,169.502,976.9,168.878L980.199,168.254"/><path marker-end="url(#my-svg_flowchart-pointEnd)" style="fill:none;" class="edge-thickness-normal edge-pattern-solid flowchart-link LS-C13 LE-BCC" id="L-C13-BCC-0" d="M878.078,1384L887.633,1384C897.188,1384,916.297,1384,930.018,1185.333C943.74,986.667,952.073,589.333,965.54,387.146C979.006,184.959,997.606,177.918,1006.906,174.397L1016.206,170.876"/><path marker-end="url(#my-svg_flowchart-pointEnd)" style="fill:none;" class="edge-thickness-normal edge-pattern-solid flowchart-link LS-BCT LE-E1" id="L-BCT-E1-0" d="M132.971,97L148.905,111.5C164.84,126,196.709,155,216.81,169.5C236.911,184,245.245,184,263.198,222.003C281.152,260.006,308.725,336.012,322.512,374.015L336.299,412.018"/><path marker-end="url(#my-svg_flowchart-pointEnd)" style="fill:none;" class="edge-thickness-normal edge-pattern-solid flowchart-link LS-BCT LE-E2" id="L-BCT-E2-0" d="M129.958,97L146.394,114.833C162.831,132.667,195.705,168.333,216.308,186.167C236.911,204,245.245,204,263.587,259.644C281.93,315.288,310.282,426.576,324.458,482.22L338.634,537.864"/><path marker-end="url(#my-svg_flowchart-pointEnd)" style="fill:none;" class="edge-thickness-normal edge-pattern-solid flowchart-link LS-BCT LE-E3" id="L-BCT-E3-0" d="M127.782,97L144.581,118.167C161.38,139.333,194.979,181.667,215.945,202.833C236.911,224,245.245,224,263.801,297.3C282.357,370.6,311.136,517.2,325.526,590.499L339.915,663.799"/><path marker-end="url(#my-svg_flowchart-pointEnd)" style="fill:none;" class="edge-thickness-normal edge-pattern-solid flowchart-link LS-BCA LE-E4" id="L-BCA-E4-0" d="M138.575,181L153.576,191.5C168.576,202,198.577,223,217.744,233.5C236.911,244,245.245,244,263.889,327.963C282.533,411.926,311.487,579.851,325.964,663.814L340.442,747.777"/><path marker-end="url(#my-svg_flowchart-pointEnd)" style="fill:none;" class="edge-thickness-normal edge-pattern-solid flowchart-link LS-BCA LE-E5" id="L-BCA-E5-0" d="M133.718,181L149.528,194.833C165.338,208.667,196.958,236.333,216.935,250.167C236.911,264,245.245,264,263.958,358.627C282.67,453.254,311.763,642.508,326.309,737.135L340.855,831.762"/><path marker-end="url(#my-svg_flowchart-pointEnd)" style="fill:none;" class="edge-thickness-normal edge-pattern-solid flowchart-link LS-BCA LE-E6" id="L-BCA-E6-0" d="M130.48,181L146.83,198.167C163.179,215.333,195.879,249.667,216.395,266.833C236.911,284,245.245,284,264.013,389.292C282.781,494.583,311.985,705.167,326.586,810.459L341.188,915.75"/><path marker-end="url(#my-svg_flowchart-pointEnd)" style="fill:none;" class="edge-thickness-normal edge-pattern-solid flowchart-link LS-E1 LE-TV2" id="L-E1-TV2-0" d="M382.32,434L391.095,434C399.87,434,417.419,434,430.361,434C443.302,434,451.635,434,459.969,434C468.302,434,476.635,434,490.909,444.529C505.183,455.059,525.398,476.118,535.505,486.647L545.613,497.176"/><path marker-end="url(#my-svg_flowchart-pointEnd)" style="fill:none;" class="edge-thickness-normal edge-pattern-solid flowchart-link LS-E2 LE-TV2" id="L-E2-TV2-0" d="M380.109,560L389.253,560C398.396,560,416.682,560,429.992,560C443.302,560,451.635,560,459.969,560C468.302,560,476.635,560,488.018,556.241C499.4,552.483,513.832,544.966,521.048,541.207L528.264,537.448"/><path marker-end="url(#my-svg_flowchart-pointEnd)" style="fill:none;" class="edge-thickness-normal edge-pattern-solid flowchart-link LS-E3 LE-TV2" id="L-E3-TV2-0" d="M384.273,686L392.723,686C401.172,686,418.07,686,430.686,686C443.302,686,451.635,686,459.969,686C468.302,686,476.635,686,492.499,661.63C508.362,637.259,531.756,588.519,543.452,564.148L555.149,539.778"/><path marker-end="url(#my-svg_flowchart-pointEnd)" style="fill:none;" class="edge-thickness-normal edge-pattern-solid flowchart-link LS-E4 LE-AIP2" id="L-E4-AIP2-0" d="M409.969,770L414.135,770C418.302,770,426.635,770,434.969,770C443.302,770,451.635,770,459.969,770C468.302,770,476.635,770,490.909,780.529C505.183,791.059,525.398,812.118,535.505,822.647L545.613,833.176"/><path marker-end="url(#my-svg_flowchart-pointEnd)" style="fill:none;" class="edge-thickness-normal edge-pattern-solid flowchart-link LS-E5 LE-AIP2" id="L-E5-AIP2-0" d="M402.055,854L407.54,854C413.026,854,423.997,854,433.65,854C443.302,854,451.635,854,459.969,854C468.302,854,476.635,854,487.72,854C498.804,854,512.639,854,519.556,854L526.473,854"/><path marker-end="url(#my-svg_flowchart-pointEnd)" style="fill:none;" class="edge-thickness-normal edge-pattern-solid flowchart-link LS-E6 LE-AIP2" id="L-E6-AIP2-0" d="M379.18,938L388.478,938C397.776,938,416.372,938,429.837,938C443.302,938,451.635,938,459.969,938C468.302,938,476.635,938,490.909,927.471C505.183,916.941,525.398,895.882,535.505,885.353L545.613,874.824"/></g><g class="edgeLabels"><g class="edgeLabel"><g transform="translate(0, 0)" class="label"><foreignObject height="0" width="0"><div style="display: inline-block; white-space: nowrap;" xmlns="http://www.w3.org/1999/xhtml"><span class="edgeLabel"></span></div></foreignObject></g></g><g class="edgeLabel"><g transform="translate(0, 0)" class="label"><foreignObject height="0" width="0"><div style="display: inline-block; white-space: nowrap;" xmlns="http://www.w3.org/1999/xhtml"><span class="edgeLabel"></span></div></foreignObject></g></g><g class="edgeLabel"><g transform="translate(0, 0)" class="label"><foreignObject height="0" width="0"><div style="display: inline-block; white-space: nowrap;" xmlns="http://www.w3.org/1999/xhtml"><span class="edgeLabel"></span></div></foreignObject></g></g><g class="edgeLabel"><g transform="translate(0, 0)" class="label"><foreignObject height="0" width="0"><div style="display: inline-block; white-space: nowrap;" xmlns="http://www.w3.org/1999/xhtml"><span class="edgeLabel"></span></div></foreignObject></g></g><g class="edgeLabel"><g transform="translate(0, 0)" class="label"><foreignObject height="0" width="0"><div style="display: inline-block; white-space: nowrap;" xmlns="http://www.w3.org/1999/xhtml"><span class="edgeLabel"></span></div></foreignObject></g></g><g class="edgeLabel"><g transform="translate(0, 0)" class="label"><foreignObject height="0" width="0"><div style="display: inline-block; white-space: nowrap;" xmlns="http://www.w3.org/1999/xhtml"><span class="edgeLabel"></span></div></foreignObject></g></g><g class="edgeLabel"><g transform="translate(0, 0)" class="label"><foreignObject height="0" width="0"><div style="display: inline-block; white-space: nowrap;" xmlns="http://www.w3.org/1999/xhtml"><span class="edgeLabel"></span></div></foreignObject></g></g><g class="edgeLabel"><g transform="translate(0, 0)" class="label"><foreignObject height="0" width="0"><div style="display: inline-block; white-space: nowrap;" xmlns="http://www.w3.org/1999/xhtml"><span class="edgeLabel"></span></div></foreignObject></g></g><g class="edgeLabel"><g transform="translate(0, 0)" class="label"><foreignObject height="0" width="0"><div style="display: inline-block; white-space: nowrap;" xmlns="http://www.w3.org/1999/xhtml"><span class="edgeLabel"></span></div></foreignObject></g></g><g class="edgeLabel"><g transform="translate(0, 0)" class="label"><foreignObject height="0" width="0"><div style="display: inline-block; white-space: nowrap;" xmlns="http://www.w3.org/1999/xhtml"><span class="edgeLabel"></span></div></foreignObject></g></g><g class="edgeLabel"><g transform="translate(0, 0)" class="label"><foreignObject height="0" width="0"><div style="display: inline-block; white-space: nowrap;" xmlns="http://www.w3.org/1999/xhtml"><span class="edgeLabel"></span></div></foreignObject></g></g><g class="edgeLabel"><g transform="translate(0, 0)" class="label"><foreignObject height="0" width="0"><div style="display: inline-block; white-space: nowrap;" xmlns="http://www.w3.org/1999/xhtml"><span class="edgeLabel"></span></div></foreignObject></g></g><g class="edgeLabel"><g transform="translate(0, 0)" class="label"><foreignObject height="0" width="0"><div style="display: inline-block; white-space: nowrap;" xmlns="http://www.w3.org/1999/xhtml"><span class="edgeLabel"></span></div></foreignObject></g></g><g class="edgeLabel"><g transform="translate(0, 0)" class="label"><foreignObject height="0" width="0"><div style="display: inline-block; white-space: nowrap;" xmlns="http://www.w3.org/1999/xhtml"><span class="edgeLabel"></span></div></foreignObject></g></g><g class="edgeLabel"><g transform="translate(0, 0)" class="label"><foreignObject height="0" width="0"><div style="display: inline-block; white-space: nowrap;" xmlns="http://www.w3.org/1999/xhtml"><span class="edgeLabel"></span></div></foreignObject></g></g><g class="edgeLabel"><g transform="translate(0, 0)" class="label"><foreignObject height="0" width="0"><div style="display: inline-block; white-space: nowrap;" xmlns="http://www.w3.org/1999/xhtml"><span class="edgeLabel"></span></div></foreignObject></g></g><g class="edgeLabel"><g transform="translate(0, 0)" class="label"><foreignObject height="0" width="0"><div style="display: inline-block; white-space: nowrap;" xmlns="http://www.w3.org/1999/xhtml"><span class="edgeLabel"></span></div></foreignObject></g></g><g class="edgeLabel"><g transform="translate(0, 0)" class="label"><foreignObject height="0" width="0"><div style="display: inline-block; white-space: nowrap;" xmlns="http://www.w3.org/1999/xhtml"><span class="edgeLabel"></span></div></foreignObject></g></g><g class="edgeLabel"><g transform="translate(0, 0)" class="label"><foreignObject height="0" width="0"><div style="display: inline-block; white-space: nowrap;" xmlns="http://www.w3.org/1999/xhtml"><span class="edgeLabel"></span></div></foreignObject></g></g><g class="edgeLabel"><g transform="translate(0, 0)" class="label"><foreignObject height="0" width="0"><div style="display: inline-block; white-space: nowrap;" xmlns="http://www.w3.org/1999/xhtml"><span class="edgeLabel"></span></div></foreignObject></g></g><g class="edgeLabel"><g transform="translate(0, 0)" class="label"><foreignObject height="0" width="0"><div style="display: inline-block; white-space: nowrap;" xmlns="http://www.w3.org/1999/xhtml"><span class="edgeLabel"></span></div></foreignObject></g></g><g class="edgeLabel"><g transform="translate(0, 0)" class="label"><foreignObject height="0" width="0"><div style="display: inline-block; white-space: nowrap;" xmlns="http://www.w3.org/1999/xhtml"><span class="edgeLabel"></span></div></foreignObject></g></g><g class="edgeLabel"><g transform="translate(0, 0)" class="label"><foreignObject height="0" width="0"><div style="display: inline-block; white-space: nowrap;" xmlns="http://www.w3.org/1999/xhtml"><span class="edgeLabel"></span></div></foreignObject></g></g><g class="edgeLabel"><g transform="translate(0, 0)" class="label"><foreignObject height="0" width="0"><div style="display: inline-block; white-space: nowrap;" xmlns="http://www.w3.org/1999/xhtml"><span class="edgeLabel"></span></div></foreignObject></g></g><g class="edgeLabel"><g transform="translate(0, 0)" class="label"><foreignObject height="0" width="0"><div style="display: inline-block; white-space: nowrap;" xmlns="http://www.w3.org/1999/xhtml"><span class="edgeLabel"></span></div></foreignObject></g></g><g class="edgeLabel"><g transform="translate(0, 0)" class="label"><foreignObject height="0" width="0"><div style="display: inline-block; white-space: nowrap;" xmlns="http://www.w3.org/1999/xhtml"><span class="edgeLabel"></span></div></foreignObject></g></g><g class="edgeLabel"><g transform="translate(0, 0)" class="label"><foreignObject height="0" width="0"><div style="display: inline-block; white-space: nowrap;" xmlns="http://www.w3.org/1999/xhtml"><span class="edgeLabel"></span></div></foreignObject></g></g><g class="edgeLabel"><g transform="translate(0, 0)" class="label"><foreignObject height="0" width="0"><div style="display: inline-block; white-space: nowrap;" xmlns="http://www.w3.org/1999/xhtml"><span class="edgeLabel"></span></div></foreignObject></g></g><g class="edgeLabel"><g transform="translate(0, 0)" class="label"><foreignObject height="0" width="0"><div style="display: inline-block; white-space: nowrap;" xmlns="http://www.w3.org/1999/xhtml"><span class="edgeLabel"></span></div></foreignObject></g></g><g class="edgeLabel"><g transform="translate(0, 0)" class="label"><foreignObject height="0" width="0"><div style="display: inline-block; white-space: nowrap;" xmlns="http://www.w3.org/1999/xhtml"><span class="edgeLabel"></span></div></foreignObject></g></g><g class="edgeLabel"><g transform="translate(0, 0)" class="label"><foreignObject height="0" width="0"><div style="display: inline-block; white-space: nowrap;" xmlns="http://www.w3.org/1999/xhtml"><span class="edgeLabel"></span></div></foreignObject></g></g><g class="edgeLabel"><g transform="translate(0, 0)" class="label"><foreignObject height="0" width="0"><div style="display: inline-block; white-space: nowrap;" xmlns="http://www.w3.org/1999/xhtml"><span class="edgeLabel"></span></div></foreignObject></g></g><g class="edgeLabel"><g transform="translate(0, 0)" class="label"><foreignObject height="0" width="0"><div style="display: inline-block; white-space: nowrap;" xmlns="http://www.w3.org/1999/xhtml"><span class="edgeLabel"></span></div></foreignObject></g></g><g class="edgeLabel"><g transform="translate(0, 0)" class="label"><foreignObject height="0" width="0"><div style="display: inline-block; white-space: nowrap;" xmlns="http://www.w3.org/1999/xhtml"><span class="edgeLabel"></span></div></foreignObject></g></g><g class="edgeLabel"><g transform="translate(0, 0)" class="label"><foreignObject height="0" width="0"><div style="display: inline-block; white-space: nowrap;" xmlns="http://www.w3.org/1999/xhtml"><span class="edgeLabel"></span></div></foreignObject></g></g><g class="edgeLabel"><g transform="translate(0, 0)" class="label"><foreignObject height="0" width="0"><div style="display: inline-block; white-space: nowrap;" xmlns="http://www.w3.org/1999/xhtml"><span class="edgeLabel"></span></div></foreignObject></g></g><g class="edgeLabel"><g transform="translate(0, 0)" class="label"><foreignObject height="0" width="0"><div style="display: inline-block; white-space: nowrap;" xmlns="http://www.w3.org/1999/xhtml"><span class="edgeLabel"></span></div></foreignObject></g></g></g><g class="nodes"><g transform="translate(114.2890625, 80)" data-id="BCT" data-node="true" id="flowchart-BCT-22" class="node default backend flowchart-label"><rect height="34" width="178.578125" y="-17" x="-89.2890625" ry="0" rx="0" style="" class="basic label-container"/><g transform="translate(-81.7890625, -9.5)" style="" class="label"><rect/><foreignObject height="19" width="163.578125"><div style="display: inline-block; white-space: nowrap;" xmlns="http://www.w3.org/1999/xhtml"><span class="nodeLabel">commands/terminal.rs</span></div></foreignObject></g></g><g transform="translate(114.2890625, 164)" data-id="BCA" data-node="true" id="flowchart-BCA-23" class="node default backend flowchart-label"><rect height="34" width="130.546875" y="-17" x="-65.2734375" ry="0" rx="0" style="" class="basic label-container"/><g transform="translate(-57.7734375, -9.5)" style="" class="label"><rect/><foreignObject height="19" width="115.546875"><div style="display: inline-block; white-space: nowrap;" xmlns="http://www.w3.org/1999/xhtml"><span class="nodeLabel">commands/ai.rs</span></div></foreignObject></g></g><g transform="translate(1066.0703125, 152)" data-id="BCC" data-node="true" id="flowchart-BCC-24" class="node default backend flowchart-label"><rect height="34" width="161.328125" y="-17" x="-80.6640625" ry="0" rx="0" style="" class="basic label-container"/><g transform="translate(-73.1640625, -9.5)" style="" class="label"><rect/><foreignObject height="19" width="146.328125"><div style="display: inline-block; white-space: nowrap;" xmlns="http://www.w3.org/1999/xhtml"><span class="nodeLabel">commands/config.rs</span></div></foreignObject></g></g><g transform="translate(344.2734375, 434)" data-id="E1" data-node="true" id="flowchart-E1-16" class="node default event flowchart-label"><rect height="34" width="76.09375" y="-17" x="-38.046875" ry="0" rx="0" style="" class="basic label-container"/><g transform="translate(-30.546875, -9.5)" style="" class="label"><rect/><foreignObject height="19" width="61.09375"><div style="display: inline-block; white-space: nowrap;" xmlns="http://www.w3.org/1999/xhtml"><span class="nodeLabel">pty:data</span></div></foreignObject></g></g><g transform="translate(344.2734375, 560)" data-id="E2" data-node="true" id="flowchart-E2-17" class="node default event flowchart-label"><rect height="34" width="71.671875" y="-17" x="-35.8359375" ry="0" rx="0" style="" class="basic label-container"/><g transform="translate(-28.3359375, -9.5)" style="" class="label"><rect/><foreignObject height="19" width="56.671875"><div style="display: inline-block; white-space: nowrap;" xmlns="http://www.w3.org/1999/xhtml"><span class="nodeLabel">pty:exit</span></div></foreignObject></g></g><g transform="translate(344.2734375, 686)" data-id="E3" data-node="true" id="flowchart-E3-18" class="node default event flowchart-label"><rect height="34" width="80" y="-17" x="-40" ry="0" rx="0" style="" class="basic label-container"/><g transform="translate(-32.5, -9.5)" style="" class="label"><rect/><foreignObject height="19" width="65"><div style="display: inline-block; white-space: nowrap;" xmlns="http://www.w3.org/1999/xhtml"><span class="nodeLabel">pty:error</span></div></foreignObject></g></g><g transform="translate(344.2734375, 770)" data-id="E4" data-node="true" id="flowchart-E4-19" class="node default event flowchart-label"><rect height="34" width="131.390625" y="-17" x="-65.6953125" ry="0" rx="0" style="" class="basic label-container"/><g transform="translate(-58.1953125, -9.5)" style="" class="label"><rect/><foreignObject height="19" width="116.390625"><div style="display: inline-block; white-space: nowrap;" xmlns="http://www.w3.org/1999/xhtml"><span class="nodeLabel">ai:stream-chunk</span></div></foreignObject></g></g><g transform="translate(344.2734375, 854)" data-id="E5" data-node="true" id="flowchart-E5-20" class="node default event flowchart-label"><rect height="34" width="115.5625" y="-17" x="-57.78125" ry="0" rx="0" style="" class="basic label-container"/><g transform="translate(-50.28125, -9.5)" style="" class="label"><rect/><foreignObject height="19" width="100.5625"><div style="display: inline-block; white-space: nowrap;" xmlns="http://www.w3.org/1999/xhtml"><span class="nodeLabel">ai:stream-end</span></div></foreignObject></g></g><g transform="translate(344.2734375, 938)" data-id="E6" data-node="true" id="flowchart-E6-21" class="node default event flowchart-label"><rect height="34" width="69.8125" y="-17" x="-34.90625" ry="0" rx="0" style="" class="basic label-container"/><g transform="translate(-27.40625, -9.5)" style="" class="label"><rect/><foreignObject height="19" width="54.8125"><div style="display: inline-block; white-space: nowrap;" xmlns="http://www.w3.org/1999/xhtml"><span class="nodeLabel">ai:error</span></div></foreignObject></g></g><g transform="translate(815.8203125, 376)" data-id="C1" data-node="true" id="flowchart-C1-3" class="node default command flowchart-label"><rect height="34" width="189.171875" y="-17" x="-94.5859375" ry="0" rx="0" style="" class="basic label-container"/><g transform="translate(-87.0859375, -9.5)" style="" class="label"><rect/><foreignObject height="19" width="174.171875"><div style="display: inline-block; white-space: nowrap;" xmlns="http://www.w3.org/1999/xhtml"><span class="nodeLabel">create_terminal_session</span></div></foreignObject></g></g><g transform="translate(815.8203125, 460)" data-id="C2" data-node="true" id="flowchart-C2-4" class="node default command flowchart-label"><rect height="34" width="107.625" y="-17" x="-53.8125" ry="0" rx="0" style="" class="basic label-container"/><g transform="translate(-46.3125, -9.5)" style="" class="label"><rect/><foreignObject height="19" width="92.625"><div style="display: inline-block; white-space: nowrap;" xmlns="http://www.w3.org/1999/xhtml"><span class="nodeLabel">write_to_pty</span></div></foreignObject></g></g><g transform="translate(815.8203125, 544)" data-id="C3" data-node="true" id="flowchart-C3-5" class="node default command flowchart-label"><rect height="34" width="88.84375" y="-17" x="-44.421875" ry="0" rx="0" style="" class="basic label-container"/><g transform="translate(-36.921875, -9.5)" style="" class="label"><rect/><foreignObject height="19" width="73.84375"><div style="display: inline-block; white-space: nowrap;" xmlns="http://www.w3.org/1999/xhtml"><span class="nodeLabel">resize_pty</span></div></foreignObject></g></g><g transform="translate(815.8203125, 628)" data-id="C4" data-node="true" id="flowchart-C4-6" class="node default command flowchart-label"><rect height="34" width="179.265625" y="-17" x="-89.6328125" ry="0" rx="0" style="" class="basic label-container"/><g transform="translate(-82.1328125, -9.5)" style="" class="label"><rect/><foreignObject height="19" width="164.265625"><div style="display: inline-block; white-space: nowrap;" xmlns="http://www.w3.org/1999/xhtml"><span class="nodeLabel">close_terminal_session</span></div></foreignObject></g></g><g transform="translate(815.8203125, 712)" data-id="C5" data-node="true" id="flowchart-C5-7" class="node default command flowchart-label"><rect height="34" width="178.265625" y="-17" x="-89.1328125" ry="0" rx="0" style="" class="basic label-container"/><g transform="translate(-81.6328125, -9.5)" style="" class="label"><rect/><foreignObject height="19" width="163.265625"><div style="display: inline-block; white-space: nowrap;" xmlns="http://www.w3.org/1999/xhtml"><span class="nodeLabel">ai_translate_command</span></div></foreignObject></g></g><g transform="translate(815.8203125, 796)" data-id="C6" data-node="true" id="flowchart-C6-8" class="node default command flowchart-label"><rect height="34" width="132.8125" y="-17" x="-66.40625" ry="0" rx="0" style="" class="basic label-container"/><g transform="translate(-58.90625, -9.5)" style="" class="label"><rect/><foreignObject height="19" width="117.8125"><div style="display: inline-block; white-space: nowrap;" xmlns="http://www.w3.org/1999/xhtml"><span class="nodeLabel">ai_explain_error</span></div></foreignObject></g></g><g transform="translate(815.8203125, 880)" data-id="C7" data-node="true" id="flowchart-C7-9" class="node default command flowchart-label"><rect height="34" width="67.78125" y="-17" x="-33.890625" ry="0" rx="0" style="" class="basic label-container"/><g transform="translate(-26.390625, -9.5)" style="" class="label"><rect/><foreignObject height="19" width="52.78125"><div style="display: inline-block; white-space: nowrap;" xmlns="http://www.w3.org/1999/xhtml"><span class="nodeLabel">ai_chat</span></div></foreignObject></g></g><g transform="translate(815.8203125, 964)" data-id="C8" data-node="true" id="flowchart-C8-10" class="node default command flowchart-label"><rect height="34" width="82.796875" y="-17" x="-41.3984375" ry="0" rx="0" style="" class="basic label-container"/><g transform="translate(-33.8984375, -9.5)" style="" class="label"><rect/><foreignObject height="19" width="67.796875"><div style="display: inline-block; white-space: nowrap;" xmlns="http://www.w3.org/1999/xhtml"><span class="nodeLabel">ai_cancel</span></div></foreignObject></g></g><g transform="translate(815.8203125, 1048)" data-id="C9" data-node="true" id="flowchart-C9-11" class="node default command flowchart-label"><rect height="34" width="90.25" y="-17" x="-45.125" ry="0" rx="0" style="" class="basic label-container"/><g transform="translate(-37.625, -9.5)" style="" class="label"><rect/><foreignObject height="19" width="75.25"><div style="display: inline-block; white-space: nowrap;" xmlns="http://www.w3.org/1999/xhtml"><span class="nodeLabel">get_config</span></div></foreignObject></g></g><g transform="translate(815.8203125, 1132)" data-id="C10" data-node="true" id="flowchart-C10-12" class="node default command flowchart-label"><rect height="34" width="88.703125" y="-17" x="-44.3515625" ry="0" rx="0" style="" class="basic label-container"/><g transform="translate(-36.8515625, -9.5)" style="" class="label"><rect/><foreignObject height="19" width="73.703125"><div style="display: inline-block; white-space: nowrap;" xmlns="http://www.w3.org/1999/xhtml"><span class="nodeLabel">set_config</span></div></foreignObject></g></g><g transform="translate(815.8203125, 1216)" data-id="C11" data-node="true" id="flowchart-C11-13" class="node default command flowchart-label"><rect height="34" width="114.703125" y="-17" x="-57.3515625" ry="0" rx="0" style="" class="basic label-container"/><g transform="translate(-49.8515625, -9.5)" style="" class="label"><rect/><foreignObject height="19" width="99.703125"><div style="display: inline-block; white-space: nowrap;" xmlns="http://www.w3.org/1999/xhtml"><span class="nodeLabel">store_api_key</span></div></foreignObject></g></g><g transform="translate(815.8203125, 1300)" data-id="C12" data-node="true" id="flowchart-C12-14" class="node default command flowchart-label"><rect height="34" width="101.984375" y="-17" x="-50.9921875" ry="0" rx="0" style="" class="basic label-container"/><g transform="translate(-43.4921875, -9.5)" style="" class="label"><rect/><foreignObject height="19" width="86.984375"><div style="display: inline-block; white-space: nowrap;" xmlns="http://www.w3.org/1999/xhtml"><span class="nodeLabel">has_api_key</span></div></foreignObject></g></g><g transform="translate(815.8203125, 1384)" data-id="C13" data-node="true" id="flowchart-C13-15" class="node default command flowchart-label"><rect height="34" width="124.515625" y="-17" x="-62.2578125" ry="0" rx="0" style="" class="basic label-container"/><g transform="translate(-54.7578125, -9.5)" style="" class="label"><rect/><foreignObject height="19" width="109.515625"><div style="display: inline-block; white-space: nowrap;" xmlns="http://www.w3.org/1999/xhtml"><span class="nodeLabel">delete_api_key</span></div></foreignObject></g></g><g transform="translate(565.6015625, 518)" data-id="TV2" data-node="true" id="flowchart-TV2-0" class="node default frontend flowchart-label"><rect height="34" width="111.265625" y="-17" x="-55.6328125" ry="0" rx="0" style="" class="basic label-container"/><g transform="translate(-48.1328125, -9.5)" style="" class="label"><rect/><foreignObject height="19" width="96.265625"><div style="display: inline-block; white-space: nowrap;" xmlns="http://www.w3.org/1999/xhtml"><span class="nodeLabel">TerminalView</span></div></foreignObject></g></g><g transform="translate(565.6015625, 854)" data-id="AIP2" data-node="true" id="flowchart-AIP2-1" class="node default frontend flowchart-label"><rect height="34" width="67.65625" y="-17" x="-33.828125" ry="0" rx="0" style="" class="basic label-container"/><g transform="translate(-26.328125, -9.5)" style="" class="label"><rect/><foreignObject height="19" width="52.65625"><div style="display: inline-block; white-space: nowrap;" xmlns="http://www.w3.org/1999/xhtml"><span class="nodeLabel">AIPanel</span></div></foreignObject></g></g><g transform="translate(565.6015625, 1190)" data-id="SV2" data-node="true" id="flowchart-SV2-2" class="node default frontend flowchart-label"><rect height="34" width="106.234375" y="-17" x="-53.1171875" ry="0" rx="0" style="" class="basic label-container"/><g transform="translate(-45.6171875, -9.5)" style="" class="label"><rect/><foreignObject height="19" width="91.234375"><div style="display: inline-block; white-space: nowrap;" xmlns="http://www.w3.org/1999/xhtml"><span class="nodeLabel">SettingsView</span></div></foreignObject></g></g></g></g></g></svg>