<svg aria-roledescription="flowchart-v2" role="graphics-document document" viewBox="-8 -8 1124.484375 871" style="max-width: 1124.48px; background-color: transparent;" xmlns:xlink="http://www.w3.org/1999/xlink" xmlns="http://www.w3.org/2000/svg" width="100%" id="my-svg"><style>#my-svg{font-family:"trebuchet ms",verdana,arial,sans-serif;font-size:16px;fill:#ccc;}#my-svg .error-icon{fill:#a44141;}#my-svg .error-text{fill:#ddd;stroke:#ddd;}#my-svg .edge-thickness-normal{stroke-width:2px;}#my-svg .edge-thickness-thick{stroke-width:3.5px;}#my-svg .edge-pattern-solid{stroke-dasharray:0;}#my-svg .edge-pattern-dashed{stroke-dasharray:3;}#my-svg .edge-pattern-dotted{stroke-dasharray:2;}#my-svg .marker{fill:lightgrey;stroke:lightgrey;}#my-svg .marker.cross{stroke:lightgrey;}#my-svg svg{font-family:"trebuchet ms",verdana,arial,sans-serif;font-size:16px;}#my-svg .label{font-family:"trebuchet ms",verdana,arial,sans-serif;color:#ccc;}#my-svg .cluster-label text{fill:#F9FFFE;}#my-svg .cluster-label span,#my-svg p{color:#F9FFFE;}#my-svg .label text,#my-svg span,#my-svg p{fill:#ccc;color:#ccc;}#my-svg .node rect,#my-svg .node circle,#my-svg .node ellipse,#my-svg .node polygon,#my-svg .node path{fill:#1f2020;stroke:#81B1DB;stroke-width:1px;}#my-svg .flowchart-label text{text-anchor:middle;}#my-svg .node .katex path{fill:#000;stroke:#000;stroke-width:1px;}#my-svg .node .label{text-align:center;}#my-svg .node.clickable{cursor:pointer;}#my-svg .arrowheadPath{fill:lightgrey;}#my-svg .edgePath .path{stroke:lightgrey;stroke-width:2.0px;}#my-svg .flowchart-link{stroke:lightgrey;fill:none;}#my-svg .edgeLabel{background-color:hsl(0, 0%, 34.4117647059%);text-align:center;}#my-svg .edgeLabel rect{opacity:0.5;background-color:hsl(0, 0%, 34.4117647059%);fill:hsl(0, 0%, 34.4117647059%);}#my-svg .labelBkg{background-color:rgba(87.75, 87.75, 87.75, 0.5);}#my-svg .cluster rect{fill:hsl(180, 1.5873015873%, 28.3529411765%);stroke:rgba(255, 255, 255, 0.25);stroke-width:1px;}#my-svg .cluster text{fill:#F9FFFE;}#my-svg .cluster span,#my-svg p{color:#F9FFFE;}#my-svg div.mermaidTooltip{position:absolute;text-align:center;max-width:200px;padding:2px;font-family:"trebuchet ms",verdana,arial,sans-serif;font-size:12px;background:hsl(20, 1.5873015873%, 12.3529411765%);border:1px solid rgba(255, 255, 255, 0.25);border-radius:2px;pointer-events:none;z-index:100;}#my-svg .flowchartTitleText{text-anchor:middle;font-size:18px;fill:#ccc;}#my-svg :root{--mermaid-font-family:"trebuchet ms",verdana,arial,sans-serif;}#my-svg .entry&gt;*{fill:#313244!important;stroke:#6c7086!important;color:#cdd6f4!important;}#my-svg .entry span{fill:#313244!important;stroke:#6c7086!important;color:#cdd6f4!important;}#my-svg .entry tspan{fill:#cdd6f4!important;}#my-svg .cmd&gt;*{fill:#1e1e2e!important;stroke:#89b4fa!important;color:#cdd6f4!important;stroke-width:2px!important;}#my-svg .cmd span{fill:#1e1e2e!important;stroke:#89b4fa!important;color:#cdd6f4!important;stroke-width:2px!important;}#my-svg .cmd tspan{fill:#cdd6f4!important;}#my-svg .domain&gt;*{fill:#1e1e2e!important;stroke:#a6e3a1!important;color:#cdd6f4!important;stroke-width:2px!important;}#my-svg .domain span{fill:#1e1e2e!important;stroke:#a6e3a1!important;color:#cdd6f4!important;stroke-width:2px!important;}#my-svg .domain tspan{fill:#cdd6f4!important;}#my-svg .port&gt;*{fill:#1e1e2e!important;stroke:#f9e2af!important;color:#cdd6f4!important;stroke-width:2px!important;}#my-svg .port span{fill:#1e1e2e!important;stroke:#f9e2af!important;color:#cdd6f4!important;stroke-width:2px!important;}#my-svg .port tspan{fill:#cdd6f4!important;}#my-svg .ext&gt;*{fill:#313244!important;stroke:#f38ba8!important;color:#cdd6f4!important;stroke-width:1px!important;}#my-svg .ext span{fill:#313244!important;stroke:#f38ba8!important;color:#cdd6f4!important;stroke-width:1px!important;}#my-svg .ext tspan{fill:#cdd6f4!important;}</style><g><marker orient="auto" markerHeight="12" markerWidth="12" markerUnits="userSpaceOnUse" refY="5" refX="6" viewBox="0 0 10 10" class="marker flowchart" id="my-svg_flowchart-pointEnd"><path style="stroke-width: 1; stroke-dasharray: 1, 0;" class="arrowMarkerPath" d="M 0 0 L 10 5 L 0 10 z"/></marker><marker orient="auto" markerHeight="12" markerWidth="12" markerUnits="userSpaceOnUse" refY="5" refX="4.5" viewBox="0 0 10 10" class="marker flowchart" id="my-svg_flowchart-pointStart"><path style="stroke-width: 1; stroke-dasharray: 1, 0;" class="arrowMarkerPath" d="M 0 5 L 10 10 L 10 0 z"/></marker><marker orient="auto" markerHeight="11" markerWidth="11" markerUnits="userSpaceOnUse" refY="5" refX="11" viewBox="0 0 10 10" class="marker flowchart" id="my-svg_flowchart-circleEnd"><circle style="stroke-width: 1; stroke-dasharray: 1, 0;" class="arrowMarkerPath" r="5" cy="5" cx="5"/></marker><marker orient="auto" markerHeight="11" markerWidth="11" markerUnits="userSpaceOnUse" refY="5" refX="-1" viewBox="0 0 10 10" class="marker flowchart" id="my-svg_flowchart-circleStart"><circle style="stroke-width: 1; stroke-dasharray: 1, 0;" class="arrowMarkerPath" r="5" cy="5" cx="5"/></marker><marker orient="auto" markerHeight="11" markerWidth="11" markerUnits="userSpaceOnUse" refY="5.2" refX="12" viewBox="0 0 11 11" class="marker cross flowchart" id="my-svg_flowchart-crossEnd"><path style="stroke-width: 2; stroke-dasharray: 1, 0;" class="arrowMarkerPath" d="M 1,1 l 9,9 M 10,1 l -9,9"/></marker><marker orient="auto" markerHeight="11" markerWidth="11" markerUnits="userSpaceOnUse" refY="5.2" refX="-1" viewBox="0 0 11 11" class="marker cross flowchart" id="my-svg_flowchart-crossStart"><path style="stroke-width: 2; stroke-dasharray: 1, 0;" class="arrowMarkerPath" d="M 1,1 l 9,9 M 10,1 l -9,9"/></marker><g class="root"><g class="clusters"><g id="External" class="cluster default flowchart-label"><rect height="141" width="671.0625" y="714" x="384.03125" ry="0" rx="0" style=""/><g transform="translate(658.8359375, 714)" class="cluster-label"><foreignObject height="19" width="121.453125"><div style="display: inline-block; white-space: nowrap;" xmlns="http://www.w3.org/1999/xhtml"><span class="nodeLabel">External Systems</span></div></foreignObject></g></g><g id="Ports" class="cluster default flowchart-label"><rect height="160" width="784.6328125" y="504" x="319.015625" ry="0" rx="0" style=""/><g transform="translate(607.93359375, 504)" class="cluster-label"><foreignObject height="19" width="206.796875"><div style="display: inline-block; white-space: nowrap;" xmlns="http://www.w3.org/1999/xhtml"><span class="nodeLabel">ports/ -- Secondary Adapters</span></div></foreignObject></g></g><g id="Domain" class="cluster default flowchart-label"><rect height="351" width="299.015625" y="504" x="0" ry="0" rx="0" style=""/><g transform="translate(57.7265625, 504)" class="cluster-label"><foreignObject height="19" width="183.5625"><div style="display: inline-block; white-space: nowrap;" xmlns="http://www.w3.org/1999/xhtml"><span class="nodeLabel">domain/ -- Business Logic</span></div></foreignObject></g></g><g id="Commands" class="cluster default flowchart-label"><rect height="160" width="998.9765625" y="294" x="109.5078125" ry="0" rx="0" style=""/><g transform="translate(455.45703125, 294)" class="cluster-label"><foreignObject height="19" width="307.078125"><div style="display: inline-block; white-space: nowrap;" xmlns="http://www.w3.org/1999/xhtml"><span class="nodeLabel">commands/ -- Primary Adapters (Tauri IPC)</span></div></foreignObject></g></g><g id="Entrypoint" class="cluster default flowchart-label"><rect height="244" width="584.53125" y="0" x="412.8203125" ry="0" rx="0" style=""/><g transform="translate(665.5859375, 0)" class="cluster-label"><foreignObject height="19" width="79"><div style="display: inline-block; white-space: nowrap;" xmlns="http://www.w3.org/1999/xhtml"><span class="nodeLabel">Entry Point</span></div></foreignObject></g></g></g><g class="edgePaths"><path marker-end="url(#my-svg_flowchart-pointEnd)" style="fill:none;" class="edge-thickness-normal edge-pattern-solid flowchart-link LS-MN LE-LIB" id="L-MN-LIB-0" d="M716.266,78L716.266,82.167C716.266,86.333,716.266,94.667,716.266,102.117C716.266,109.567,716.266,116.133,716.266,119.417L716.266,122.7"/><path marker-end="url(#my-svg_flowchart-pointEnd)" style="fill:none;" class="edge-thickness-normal edge-pattern-solid flowchart-link LS-LIB LE-CT" id="L-LIB-CT-0" d="M617.375,199.964L589.949,207.303C562.523,214.643,507.672,229.321,480.246,240.827C452.82,252.333,452.82,260.667,452.82,269C452.82,277.333,452.82,285.667,452.82,294.7C452.82,303.733,452.82,313.467,452.82,318.333L452.82,323.2"/><path marker-end="url(#my-svg_flowchart-pointEnd)" style="fill:none;" class="edge-thickness-normal edge-pattern-solid flowchart-link LS-LIB LE-CA" id="L-LIB-CA-0" d="M716.266,219L716.266,223.167C716.266,227.333,716.266,235.667,716.266,244C716.266,252.333,716.266,260.667,716.266,269C716.266,277.333,716.266,285.667,716.266,293.117C716.266,300.567,716.266,307.133,716.266,310.417L716.266,313.7"/><path marker-end="url(#my-svg_flowchart-pointEnd)" style="fill:none;" class="edge-thickness-normal edge-pattern-solid flowchart-link LS-LIB LE-CC" id="L-LIB-CC-0" d="M815.156,200.671L841.439,207.893C867.721,215.114,920.286,229.557,946.569,240.945C972.852,252.333,972.852,260.667,972.852,269C972.852,277.333,972.852,285.667,972.852,294.7C972.852,303.733,972.852,313.467,972.852,318.333L972.852,323.2"/><path marker-end="url(#my-svg_flowchart-pointEnd)" style="fill:none;" class="edge-thickness-normal edge-pattern-solid flowchart-link LS-CA LE-DC" id="L-CA-DC-0" d="M616.328,388.107L538.525,399.089C460.721,410.071,305.115,432.036,227.311,447.184C149.508,462.333,149.508,470.667,149.508,479C149.508,487.333,149.508,495.667,149.508,504.7C149.508,513.733,149.508,523.467,149.508,528.333L149.508,533.2"/><path marker-end="url(#my-svg_flowchart-pointEnd)" style="fill:none;" class="edge-thickness-normal edge-pattern-solid flowchart-link LS-DC LE-DR" id="L-DC-DR-0" d="M149.508,629.5L149.508,635.25C149.508,641,149.508,652.5,149.508,662.417C149.508,672.333,149.508,680.667,149.508,689C149.508,697.333,149.508,705.667,149.508,713.117C149.508,720.567,149.508,727.133,149.508,730.417L149.508,733.7"/><path marker-end="url(#my-svg_flowchart-pointEnd)" style="fill:none;" class="edge-thickness-normal edge-pattern-solid flowchart-link LS-CT LE-PP" id="L-CT-PP-0" d="M452.82,419.5L452.82,425.25C452.82,431,452.82,442.5,452.82,452.417C452.82,462.333,452.82,470.667,452.82,479C452.82,487.333,452.82,495.667,452.82,503.117C452.82,510.567,452.82,517.133,452.82,520.417L452.82,523.7"/><path marker-end="url(#my-svg_flowchart-pointEnd)" style="fill:none;" class="edge-thickness-normal edge-pattern-solid flowchart-link LS-CA LE-PCA" id="L-CA-PCA-0" d="M716.266,429L716.266,433.167C716.266,437.333,716.266,445.667,716.266,454C716.266,462.333,716.266,470.667,716.266,479C716.266,487.333,716.266,495.667,717.093,503.143C717.92,510.619,719.575,517.239,720.403,520.549L721.23,523.858"/><path marker-end="url(#my-svg_flowchart-pointEnd)" style="fill:none;" class="edge-thickness-normal edge-pattern-solid flowchart-link LS-CC LE-PS" id="L-CC-PS-0" d="M976.828,419.5L977.331,425.25C977.833,431,978.839,442.5,979.341,452.417C979.844,462.333,979.844,470.667,979.844,479C979.844,487.333,979.844,495.667,979.844,503.117C979.844,510.567,979.844,517.133,979.844,520.417L979.844,523.7"/><path marker-end="url(#my-svg_flowchart-pointEnd)" style="fill:none;" class="edge-thickness-normal edge-pattern-solid flowchart-link LS-CC LE-PCA" id="L-CC-PCA-0" d="M903.862,419.5L895.143,425.25C886.425,431,868.988,442.5,860.269,452.417C851.551,462.333,851.551,470.667,851.551,479C851.551,487.333,851.551,495.667,846.272,503.496C840.993,511.326,830.436,518.652,825.157,522.315L819.878,525.978"/><path marker-end="url(#my-svg_flowchart-pointEnd)" style="fill:none;" class="edge-thickness-normal edge-pattern-solid flowchart-link LS-PP LE-PTY" id="L-PP-PTY-0" d="M452.82,639L452.82,643.167C452.82,647.333,452.82,655.667,452.82,664C452.82,672.333,452.82,680.667,452.82,689C452.82,697.333,452.82,705.667,452.82,716.283C452.82,726.9,452.82,739.8,452.82,746.25L452.82,752.7"/><path marker-end="url(#my-svg_flowchart-pointEnd)" style="fill:none;" class="edge-thickness-normal edge-pattern-solid flowchart-link LS-PCA LE-API" id="L-PCA-API-0" d="M736.266,639L736.266,643.167C736.266,647.333,736.266,655.667,736.266,664C736.266,672.333,736.266,680.667,736.266,689C736.266,697.333,736.266,705.667,736.266,716.283C736.266,726.9,736.266,739.8,736.266,746.25L736.266,752.7"/><path marker-end="url(#my-svg_flowchart-pointEnd)" style="fill:none;" class="edge-thickness-normal edge-pattern-solid flowchart-link LS-PS LE-DB" id="L-PS-DB-0" d="M979.844,639L979.844,643.167C979.844,647.333,979.844,655.667,979.844,664C979.844,672.333,979.844,680.667,979.844,689C979.844,697.333,979.844,705.667,979.844,716.283C979.844,726.9,979.844,739.8,979.844,746.25L979.844,752.7"/></g><g class="edgeLabels"><g class="edgeLabel"><g transform="translate(0, 0)" class="label"><foreignObject height="0" width="0"><div style="display: inline-block; white-space: nowrap;" xmlns="http://www.w3.org/1999/xhtml"><span class="edgeLabel"></span></div></foreignObject></g></g><g class="edgeLabel"><g transform="translate(0, 0)" class="label"><foreignObject height="0" width="0"><div style="display: inline-block; white-space: nowrap;" xmlns="http://www.w3.org/1999/xhtml"><span class="edgeLabel"></span></div></foreignObject></g></g><g class="edgeLabel"><g transform="translate(0, 0)" class="label"><foreignObject height="0" width="0"><div style="display: inline-block; white-space: nowrap;" xmlns="http://www.w3.org/1999/xhtml"><span class="edgeLabel"></span></div></foreignObject></g></g><g class="edgeLabel"><g transform="translate(0, 0)" class="label"><foreignObject height="0" width="0"><div style="display: inline-block; white-space: nowrap;" xmlns="http://www.w3.org/1999/xhtml"><span class="edgeLabel"></span></div></foreignObject></g></g><g class="edgeLabel"><g transform="translate(0, 0)" class="label"><foreignObject height="0" width="0"><div style="display: inline-block; white-space: nowrap;" xmlns="http://www.w3.org/1999/xhtml"><span class="edgeLabel"></span></div></foreignObject></g></g><g class="edgeLabel"><g transform="translate(0, 0)" class="label"><foreignObject height="0" width="0"><div style="display: inline-block; white-space: nowrap;" xmlns="http://www.w3.org/1999/xhtml"><span class="edgeLabel"></span></div></foreignObject></g></g><g class="edgeLabel"><g transform="translate(0, 0)" class="label"><foreignObject height="0" width="0"><div style="display: inline-block; white-space: nowrap;" xmlns="http://www.w3.org/1999/xhtml"><span class="edgeLabel"></span></div></foreignObject></g></g><g class="edgeLabel"><g transform="translate(0, 0)" class="label"><foreignObject height="0" width="0"><div style="display: inline-block; white-space: nowrap;" xmlns="http://www.w3.org/1999/xhtml"><span class="edgeLabel"></span></div></foreignObject></g></g><g class="edgeLabel"><g transform="translate(0, 0)" class="label"><foreignObject height="0" width="0"><div style="display: inline-block; white-space: nowrap;" xmlns="http://www.w3.org/1999/xhtml"><span class="edgeLabel"></span></div></foreignObject></g></g><g class="edgeLabel"><g transform="translate(0, 0)" class="label"><foreignObject height="0" width="0"><div style="display: inline-block; white-space: nowrap;" xmlns="http://www.w3.org/1999/xhtml"><span class="edgeLabel"></span></div></foreignObject></g></g><g class="edgeLabel"><g transform="translate(0, 0)" class="label"><foreignObject height="0" width="0"><div style="display: inline-block; white-space: nowrap;" xmlns="http://www.w3.org/1999/xhtml"><span class="edgeLabel"></span></div></foreignObject></g></g><g class="edgeLabel"><g transform="translate(0, 0)" class="label"><foreignObject height="0" width="0"><div style="display: inline-block; white-space: nowrap;" xmlns="http://www.w3.org/1999/xhtml"><span class="edgeLabel"></span></div></foreignObject></g></g><g class="edgeLabel"><g transform="translate(0, 0)" class="label"><foreignObject height="0" width="0"><div style="display: inline-block; white-space: nowrap;" xmlns="http://www.w3.org/1999/xhtml"><span class="edgeLabel"></span></div></foreignObject></g></g></g><g class="nodes"><g transform="translate(452.8203125, 784.5)" data-id="PTY" data-node="true" id="flowchart-PTY-30" class="node default ext flowchart-label"><rect height="53" width="67.578125" y="-26.5" x="-33.7890625" ry="0" rx="0" style="" class="basic label-container"/><g transform="translate(-26.2890625, -19)" style="" class="label"><rect/><foreignObject height="38" width="52.578125"><div style="display: inline-block; white-space: nowrap;" xmlns="http://www.w3.org/1999/xhtml"><span class="nodeLabel">Shell<br />Process</span></div></foreignObject></g></g><g transform="translate(736.265625, 784.5)" data-id="API" data-node="true" id="flowchart-API-31" class="node default ext flowchart-label"><rect height="53" width="84.46875" y="-26.5" x="-42.234375" ry="0" rx="0" style="" class="basic label-container"/><g transform="translate(-34.734375, -19)" style="" class="label"><rect/><foreignObject height="38" width="69.46875"><div style="display: inline-block; white-space: nowrap;" xmlns="http://www.w3.org/1999/xhtml"><span class="nodeLabel">Anthropic<br />API</span></div></foreignObject></g></g><g transform="translate(979.84375, 784.5)" data-id="DB" data-node="true" id="flowchart-DB-32" class="node default ext flowchart-label"><rect height="53" width="80.5" y="-26.5" x="-40.25" ry="0" rx="0" style="" class="basic label-container"/><g transform="translate(-32.75, -19)" style="" class="label"><rect/><foreignObject height="38" width="65.5"><div style="display: inline-block; white-space: nowrap;" xmlns="http://www.w3.org/1999/xhtml"><span class="nodeLabel">SQLite<br />Database</span></div></foreignObject></g></g><g transform="translate(452.8203125, 584)" data-id="PP" data-node="true" id="flowchart-PP-19" class="node default port flowchart-label"><rect height="110" width="197.609375" y="-55" x="-98.8046875" ry="0" rx="0" style="" class="basic label-container"/><g transform="translate(-91.3046875, -47.5)" style="" class="label"><rect/><foreignObject height="95" width="182.609375"><div style="display: inline-block; white-space: nowrap;" xmlns="http://www.w3.org/1999/xhtml"><span class="nodeLabel">pty.rs<br />95 lines<br />PtyHandle: spawn, write,<br />resize, kill<br />PtyReader: read_chunk</span></div></foreignObject></g></g><g transform="translate(736.265625, 584)" data-id="PCA" data-node="true" id="flowchart-PCA-20" class="node default port flowchart-label"><rect height="110" width="195.5625" y="-55" x="-97.78125" ry="0" rx="0" style="" class="basic label-container"/><g transform="translate(-90.28125, -47.5)" style="" class="label"><rect/><foreignObject height="95" width="180.5625"><div style="display: inline-block; white-space: nowrap;" xmlns="http://www.w3.org/1999/xhtml"><span class="nodeLabel">claude_api.rs<br />147 lines<br />send_message_streaming<br />(SSE via bytes_stream)<br />validate_api_key</span></div></foreignObject></g></g><g transform="translate(979.84375, 584)" data-id="PS" data-node="true" id="flowchart-PS-21" class="node default port flowchart-label"><rect height="110" width="177.609375" y="-55" x="-88.8046875" ry="0" rx="0" style="" class="basic label-container"/><g transform="translate(-81.3046875, -47.5)" style="" class="label"><rect/><foreignObject height="95" width="162.609375"><div style="display: inline-block; white-space: nowrap;" xmlns="http://www.w3.org/1999/xhtml"><span class="nodeLabel">storage.rs<br />154 lines<br />SQLite: schema init,<br />config CRUD,<br />command_history save</span></div></foreignObject></g></g><g transform="translate(149.5078125, 784.5)" data-id="DR" data-node="true" id="flowchart-DR-13" class="node default domain flowchart-label"><rect height="91" width="132.921875" y="-45.5" x="-66.4609375" ry="0" rx="0" style="" class="basic label-container"/><g transform="translate(-58.9609375, -38)" style="" class="label"><rect/><foreignObject height="76" width="117.921875"><div style="display: inline-block; white-space: nowrap;" xmlns="http://www.w3.org/1999/xhtml"><span class="nodeLabel">redaction.rs<br />77 lines<br />6 regex patterns<br />+ 4 unit tests</span></div></foreignObject></g></g><g transform="translate(149.5078125, 584)" data-id="DC" data-node="true" id="flowchart-DC-14" class="node default domain flowchart-label"><rect height="91" width="229.015625" y="-45.5" x="-114.5078125" ry="0" rx="0" style="" class="basic label-container"/><g transform="translate(-107.0078125, -38)" style="" class="label"><rect/><foreignObject height="76" width="214.015625"><div style="display: inline-block; white-space: nowrap;" xmlns="http://www.w3.org/1999/xhtml"><span class="nodeLabel">context.rs<br />78 lines<br />build_system_prompt<br />build_error_diagnosis_prompt</span></div></foreignObject></g></g><g transform="translate(452.8203125, 374)" data-id="CT" data-node="true" id="flowchart-CT-4" class="node default cmd flowchart-label"><rect height="91" width="227.015625" y="-45.5" x="-113.5078125" ry="0" rx="0" style="" class="basic label-container"/><g transform="translate(-106.0078125, -38)" style="" class="label"><rect/><foreignObject height="76" width="212.015625"><div style="display: inline-block; white-space: nowrap;" xmlns="http://www.w3.org/1999/xhtml"><span class="nodeLabel">terminal.rs<br />140 lines<br />create_session, write_to_pty,<br />resize_pty, close_session</span></div></foreignObject></g></g><g transform="translate(716.265625, 374)" data-id="CA" data-node="true" id="flowchart-CA-5" class="node default cmd flowchart-label"><rect height="110" width="199.875" y="-55" x="-99.9375" ry="0" rx="0" style="" class="basic label-container"/><g transform="translate(-92.4375, -47.5)" style="" class="label"><rect/><foreignObject height="95" width="184.875"><div style="display: inline-block; white-space: nowrap;" xmlns="http://www.w3.org/1999/xhtml"><span class="nodeLabel">ai.rs<br />301 lines<br />ai_translate_command,<br />ai_explain_error, ai_chat,<br />ai_cancel</span></div></foreignObject></g></g><g transform="translate(972.8515625, 374)" data-id="CC" data-node="true" id="flowchart-CC-6" class="node default cmd flowchart-label"><rect height="91" width="201.265625" y="-45.5" x="-100.6328125" ry="0" rx="0" style="" class="basic label-container"/><g transform="translate(-93.1328125, -38)" style="" class="label"><rect/><foreignObject height="76" width="186.265625"><div style="display: inline-block; white-space: nowrap;" xmlns="http://www.w3.org/1999/xhtml"><span class="nodeLabel">config.rs<br />67 lines<br />get/set_config,<br />store/has/delete_api_key</span></div></foreignObject></g></g><g transform="translate(716.265625, 51.5)" data-id="MN" data-node="true" id="flowchart-MN-0" class="node default entry flowchart-label"><rect height="53" width="68.5625" y="-26.5" x="-34.28125" ry="0" rx="0" style="" class="basic label-container"/><g transform="translate(-26.78125, -19)" style="" class="label"><rect/><foreignObject height="38" width="53.5625"><div style="display: inline-block; white-space: nowrap;" xmlns="http://www.w3.org/1999/xhtml"><span class="nodeLabel">main.rs<br />6 lines</span></div></foreignObject></g></g><g transform="translate(716.265625, 173.5)" data-id="LIB" data-node="true" id="flowchart-LIB-1" class="node default entry flowchart-label"><rect height="91" width="197.78125" y="-45.5" x="-98.890625" ry="0" rx="0" style="" class="basic label-container"/><g transform="translate(-91.390625, -38)" style="" class="label"><rect/><foreignObject height="76" width="182.78125"><div style="display: inline-block; white-space: nowrap;" xmlns="http://www.w3.org/1999/xhtml"><span class="nodeLabel">lib.rs<br />58 lines<br />App bootstrap, state init,<br />command registration</span></div></foreignObject></g></g></g></g></g></svg>